<svg width="212" height="174" viewBox="0 0 212 174" fill="none" xmlns="http://www.w3.org/2000/svg">
<rect x="1.16699" y="0.5" width="210" height="173" rx="15.5" fill="white"/>
<rect x="1.16699" y="0.5" width="210" height="173" rx="15.5" stroke="#AFE9D9"/>
<path d="M100.821 62.5646C100.068 62.5645 99.3308 62.788 98.7041 63.2067C98.0775 63.6254 97.589 64.2205 97.3006 64.9168C97.0122 65.6131 96.9367 66.3792 97.0837 67.1184C97.2307 67.8576 97.5936 68.5366 98.1265 69.0695C98.6594 69.6025 99.3384 69.9654 100.078 70.1125C100.817 70.2595 101.583 70.1841 102.279 69.8956C102.976 69.6072 103.571 69.1188 103.989 68.4922C104.408 67.8655 104.632 67.1288 104.632 66.3751C104.63 65.3649 104.229 64.3964 103.514 63.682C102.8 62.9677 101.831 62.5658 100.821 62.5646ZM100.821 68.0273C100.494 68.0274 100.175 67.9305 99.9031 67.7489C99.6314 67.5674 99.4196 67.3093 99.2945 67.0074C99.1694 66.7054 99.1367 66.3732 99.2004 66.0526C99.2642 65.7321 99.4216 65.4377 99.6526 65.2066C99.8837 64.9755 100.178 64.8181 100.499 64.7544C100.819 64.6906 101.152 64.7233 101.453 64.8484C101.755 64.9735 102.013 65.1853 102.195 65.4571C102.377 65.7288 102.473 66.0483 102.473 66.3751C102.473 66.8132 102.299 67.2331 101.989 67.5428C101.679 67.8526 101.259 68.0268 100.821 68.0273ZM85.3869 62.5646C84.6332 62.5645 83.8965 62.788 83.2698 63.2067C82.6432 63.6254 82.1547 64.2205 81.8663 64.9168C81.5778 65.6131 81.5024 66.3792 81.6494 67.1184C81.7964 67.8576 82.1593 68.5366 82.6922 69.0695C83.2251 69.6025 83.9041 69.9654 84.6433 70.1125C85.3824 70.2595 86.1486 70.1841 86.8449 69.8956C87.5412 69.6072 88.1364 69.1188 88.5551 68.4922C88.9738 67.8655 89.1973 67.1288 89.1973 66.3751C89.1962 65.3648 88.7944 64.3963 88.08 63.6819C87.3656 62.9675 86.397 62.5657 85.3867 62.5646H85.3869ZM85.3869 68.0273C85.0601 68.0274 84.7406 67.9305 84.4688 67.7489C84.1971 67.5674 83.9853 67.3093 83.8602 67.0074C83.7351 66.7054 83.7024 66.3732 83.7661 66.0526C83.8299 65.7321 83.9872 65.4377 84.2183 65.2066C84.4494 64.9755 84.7439 64.8181 85.0644 64.7544C85.385 64.6906 85.7172 64.7233 86.0191 64.8484C86.3211 64.9735 86.5791 65.1853 86.7607 65.4571C86.9422 65.7288 87.0391 66.0483 87.0391 66.3751C87.0386 66.8132 86.8643 67.2331 86.5545 67.5429C86.2448 67.8526 85.8248 68.0268 85.3867 68.0273H85.3869ZM116.256 70.1855C117.009 70.1855 117.746 69.962 118.373 69.5433C118.999 69.1246 119.488 68.5295 119.776 67.8332C120.064 67.1369 120.14 66.3707 119.993 65.6315C119.846 64.8923 119.483 64.2133 118.95 63.6804C118.417 63.1475 117.738 62.7846 116.999 62.6376C116.26 62.4906 115.493 62.5661 114.797 62.8545C114.101 63.143 113.506 63.6314 113.087 64.2581C112.668 64.8847 112.445 65.6215 112.445 66.3751C112.446 67.3854 112.848 68.3539 113.562 69.0683C114.277 69.7826 115.245 70.1844 116.256 70.1855ZM116.256 64.7228C116.582 64.7228 116.902 64.8197 117.174 65.0013C117.445 65.1828 117.657 65.4409 117.782 65.7428C117.907 66.0447 117.94 66.377 117.876 66.6975C117.812 67.018 117.655 67.3124 117.424 67.5435C117.193 67.7746 116.898 67.932 116.578 67.9957C116.257 68.0595 115.925 68.0268 115.623 67.9017C115.321 67.7766 115.063 67.5649 114.882 67.2931C114.7 67.0214 114.603 66.7019 114.603 66.3751C114.604 65.937 114.778 65.517 115.088 65.2073C115.397 64.8975 115.817 64.7233 116.256 64.7228ZM100.821 75.4645C100.068 75.4645 99.3308 75.6879 98.7041 76.1066C98.0775 76.5253 97.589 77.1204 97.3006 77.8167C97.0122 78.513 96.9367 79.2792 97.0837 80.0183C97.2307 80.7575 97.5936 81.4365 98.1265 81.9695C98.6594 82.5024 99.3384 82.8653 100.078 83.0124C100.817 83.1594 101.583 83.084 102.279 82.7956C102.976 82.5072 103.571 82.0187 103.989 81.3921C104.408 80.7654 104.632 80.0287 104.632 79.275C104.63 78.2648 104.229 77.2963 103.514 76.5819C102.8 75.8676 101.831 75.4657 100.821 75.4645ZM100.821 80.9272C100.494 80.9273 100.175 80.8304 99.9031 80.6488C99.6314 80.4673 99.4196 80.2092 99.2945 79.9073C99.1694 79.6054 99.1367 79.2731 99.2004 78.9526C99.2642 78.632 99.4216 78.3376 99.6526 78.1065C99.8837 77.8754 100.178 77.718 100.499 77.6543C100.819 77.5905 101.152 77.6232 101.453 77.7483C101.755 77.8734 102.013 78.0852 102.195 78.357C102.377 78.6287 102.473 78.9482 102.473 79.275C102.473 79.7131 102.299 80.133 101.989 80.4427C101.679 80.7525 101.259 80.9267 100.821 80.9272ZM85.3869 75.4645C84.6332 75.4645 83.8965 75.6879 83.2698 76.1066C82.6432 76.5253 82.1547 77.1204 81.8663 77.8167C81.5778 78.513 81.5024 79.2792 81.6494 80.0183C81.7964 80.7575 82.1593 81.4365 82.6922 81.9695C83.2251 82.5024 83.9041 82.8653 84.6433 83.0124C85.3824 83.1594 86.1486 83.084 86.8449 82.7956C87.5412 82.5072 88.1364 82.0187 88.5551 81.3921C88.9738 80.7654 89.1973 80.0287 89.1973 79.275C89.1961 78.2648 88.7943 77.2962 88.0799 76.5818C87.3656 75.8675 86.397 75.4656 85.3867 75.4645H85.3869ZM85.3869 80.9272C85.0601 80.9273 84.7406 80.8304 84.4688 80.6488C84.1971 80.4673 83.9853 80.2092 83.8602 79.9073C83.7351 79.6054 83.7024 79.2731 83.7661 78.9526C83.8299 78.632 83.9872 78.3376 84.2183 78.1065C84.4494 77.8754 84.7439 77.718 85.0644 77.6543C85.385 77.5905 85.7172 77.6232 86.0191 77.7483C86.3211 77.8734 86.5791 78.0852 86.7607 78.357C86.9422 78.6287 87.0391 78.9482 87.0391 79.275C87.0386 79.7131 86.8643 80.1331 86.5545 80.4428C86.2448 80.7525 85.8248 80.9267 85.3867 80.9272H85.3869Z" fill="#34896B"/>
<path d="M130.519 72.7996V45.7029C130.518 44.5613 130.064 43.4668 129.257 42.6595C128.449 41.8523 127.355 41.3982 126.213 41.3969H117.725V36.7978H115.567V41.3971H85.9918V36.7978H83.8336V41.3971H75.345C74.2034 41.3984 73.1089 41.8524 72.3017 42.6597C71.4944 43.4669 71.0403 44.5614 71.0391 45.703V55.0027C71.0389 55.1454 71.0672 55.2866 71.1222 55.4183V88.264C71.1235 89.4056 71.5775 90.5001 72.3848 91.3074C73.192 92.1146 74.2866 92.5687 75.4282 92.5699H108.301C109.009 95.3587 110.423 97.9183 112.407 100.002C114.391 102.086 116.878 103.624 119.628 104.467C122.379 105.311 125.301 105.432 128.112 104.819C130.923 104.205 133.528 102.879 135.678 100.966C137.827 99.0532 139.448 96.6193 140.384 93.8985C141.319 91.1778 141.538 88.2619 141.02 85.4318C140.502 82.6017 139.263 79.9528 137.424 77.7403C135.585 75.5277 133.207 73.8262 130.519 72.7994V72.7996ZM75.3448 43.5551H83.8332V48.7393H85.9914V43.5553H115.566V48.7395H117.725V43.5553H126.213C126.782 43.5559 127.328 43.7824 127.731 44.1851C128.134 44.5877 128.36 45.1336 128.361 45.703V53.8219H73.1973V45.703C73.1979 45.1336 73.4244 44.5877 73.8271 44.1851C74.2297 43.7824 74.7756 43.5559 75.345 43.5553L75.3448 43.5551ZM75.4279 90.4114C74.8586 90.4106 74.3129 90.1841 73.9103 89.7815C73.5078 89.379 73.2814 88.8332 73.2806 88.264V56.0818H128.361V72.1359C125.741 71.5223 123.011 71.5489 120.404 72.2135C117.796 72.878 115.387 74.1611 113.38 75.9539C111.373 77.7468 109.828 79.9967 108.874 82.5133C107.921 85.0299 107.588 87.739 107.904 90.4115L75.4279 90.4114ZM124.541 103.044C121.654 103.044 118.833 102.188 116.432 100.584C114.032 98.9804 112.162 96.701 111.057 94.0341C109.952 91.3673 109.663 88.4327 110.226 85.6016C110.79 82.7704 112.18 80.1699 114.221 78.1287C116.262 76.0876 118.862 74.6976 121.694 74.1344C124.525 73.5713 127.459 73.8603 130.126 74.9649C132.793 76.0696 135.072 77.9403 136.676 80.3404C138.28 82.7405 139.136 85.5623 139.136 88.4489C139.132 92.3184 137.592 96.0281 134.856 98.7643C132.12 101.5 128.41 103.039 124.541 103.044Z" fill="#34896B"/>
<path d="M133.607 83.4346H129.556V79.3835C129.556 79.0973 129.442 78.8228 129.24 78.6204C129.037 78.418 128.763 78.3044 128.477 78.3044H120.606C120.32 78.3044 120.046 78.418 119.843 78.6204C119.641 78.8228 119.527 79.0973 119.527 79.3835V83.4346H115.476C115.189 83.4346 114.915 83.5483 114.713 83.7506C114.51 83.953 114.396 84.2275 114.396 84.5137V92.3841C114.396 92.6703 114.51 92.9448 114.713 93.1472C114.915 93.3496 115.189 93.4632 115.476 93.4632H119.527V97.5145C119.527 97.8007 119.641 98.0752 119.843 98.2776C120.045 98.4799 120.32 98.5936 120.606 98.5936H128.477C128.763 98.5936 129.037 98.4799 129.24 98.2776C129.442 98.0752 129.556 97.8007 129.556 97.5145V93.4636H133.607C133.893 93.4636 134.168 93.3499 134.37 93.1475C134.573 92.9451 134.686 92.6707 134.686 92.3845V84.514C134.686 84.2278 134.573 83.9533 134.37 83.751C134.168 83.5486 133.893 83.4349 133.607 83.4349L133.607 83.4346ZM132.528 91.3054H128.477C128.191 91.3054 127.916 91.4191 127.714 91.6214C127.511 91.8238 127.398 92.0983 127.398 92.3845V96.4356H121.685V92.3845C121.685 92.0983 121.572 91.8238 121.369 91.6214C121.167 91.4191 120.892 91.3054 120.606 91.3054H116.555V85.5931H120.606C120.892 85.5931 121.167 85.4794 121.369 85.277C121.572 85.0747 121.685 84.8002 121.685 84.514V80.4627H127.397V84.5137C127.397 84.7999 127.511 85.0743 127.714 85.2767C127.916 85.4791 128.19 85.5928 128.477 85.5928H132.528L132.528 91.3054Z" fill="#4AC59A"/>
<path d="M33.915 139.612C33.7017 139.612 33.531 139.564 33.403 139.468C33.275 139.372 33.2003 139.244 33.179 139.084C33.1577 138.924 33.1897 138.743 33.275 138.54L37.611 128.812C37.7177 128.556 37.851 128.375 38.011 128.268C38.1817 128.161 38.3683 128.108 38.571 128.108C38.763 128.108 38.939 128.161 39.099 128.268C39.2697 128.375 39.4083 128.556 39.515 128.812L43.851 138.54C43.947 138.743 43.9843 138.929 43.963 139.1C43.9417 139.26 43.8723 139.388 43.755 139.484C43.6377 139.569 43.4723 139.612 43.259 139.612C43.0243 139.612 42.8377 139.553 42.699 139.436C42.5603 139.319 42.4377 139.137 42.331 138.892L41.211 136.3L41.963 136.748H35.147L35.883 136.3L34.779 138.892C34.6723 139.148 34.555 139.335 34.427 139.452C34.299 139.559 34.1283 139.612 33.915 139.612ZM38.539 130.06L36.123 135.788L35.723 135.404H41.371L41.003 135.788L38.571 130.06H38.539ZM46.3842 142.492C46.1282 142.492 45.9309 142.423 45.7922 142.284C45.6536 142.145 45.5842 141.943 45.5842 141.676V132.396C45.5842 132.129 45.6536 131.927 45.7922 131.788C45.9309 131.649 46.1229 131.58 46.3682 131.58C46.6242 131.58 46.8216 131.649 46.9602 131.788C47.0989 131.927 47.1682 132.129 47.1682 132.396V133.788L46.9922 133.452C47.1629 132.876 47.4989 132.417 48.0002 132.076C48.5016 131.724 49.0936 131.548 49.7762 131.548C50.4696 131.548 51.0722 131.713 51.5842 132.044C52.1069 132.375 52.5069 132.839 52.7842 133.436C53.0722 134.033 53.2162 134.753 53.2162 135.596C53.2162 136.417 53.0722 137.137 52.7842 137.756C52.5069 138.364 52.1122 138.833 51.6002 139.164C51.0882 139.484 50.4802 139.644 49.7762 139.644C49.1042 139.644 48.5176 139.473 48.0162 139.132C47.5149 138.791 47.1789 138.337 47.0082 137.772H47.2002V141.676C47.2002 141.943 47.1256 142.145 46.9762 142.284C46.8376 142.423 46.6402 142.492 46.3842 142.492ZM49.3762 138.396C49.8242 138.396 50.2136 138.289 50.5442 138.076C50.8749 137.863 51.1309 137.548 51.3122 137.132C51.4936 136.716 51.5842 136.204 51.5842 135.596C51.5842 134.679 51.3816 133.985 50.9762 133.516C50.5816 133.047 50.0482 132.812 49.3762 132.812C48.9389 132.812 48.5496 132.919 48.2082 133.132C47.8776 133.335 47.6216 133.644 47.4402 134.06C47.2589 134.476 47.1682 134.988 47.1682 135.596C47.1682 136.503 47.3709 137.196 47.7762 137.676C48.1816 138.156 48.7149 138.396 49.3762 138.396ZM55.8374 142.492C55.5814 142.492 55.384 142.423 55.2454 142.284C55.1067 142.145 55.0374 141.943 55.0374 141.676V132.396C55.0374 132.129 55.1067 131.927 55.2454 131.788C55.384 131.649 55.576 131.58 55.8214 131.58C56.0774 131.58 56.2747 131.649 56.4134 131.788C56.552 131.927 56.6214 132.129 56.6214 132.396V133.788L56.4454 133.452C56.616 132.876 56.952 132.417 57.4534 132.076C57.9547 131.724 58.5467 131.548 59.2294 131.548C59.9227 131.548 60.5254 131.713 61.0374 132.044C61.56 132.375 61.96 132.839 62.2374 133.436C62.5254 134.033 62.6694 134.753 62.6694 135.596C62.6694 136.417 62.5254 137.137 62.2374 137.756C61.96 138.364 61.5654 138.833 61.0534 139.164C60.5414 139.484 59.9334 139.644 59.2294 139.644C58.5574 139.644 57.9707 139.473 57.4694 139.132C56.968 138.791 56.632 138.337 56.4614 137.772H56.6534V141.676C56.6534 141.943 56.5787 142.145 56.4294 142.284C56.2907 142.423 56.0934 142.492 55.8374 142.492ZM58.8294 138.396C59.2774 138.396 59.6667 138.289 59.9974 138.076C60.328 137.863 60.584 137.548 60.7654 137.132C60.9467 136.716 61.0374 136.204 61.0374 135.596C61.0374 134.679 60.8347 133.985 60.4294 133.516C60.0347 133.047 59.5014 132.812 58.8294 132.812C58.392 132.812 58.0027 132.919 57.6614 133.132C57.3307 133.335 57.0747 133.644 56.8934 134.06C56.712 134.476 56.6214 134.988 56.6214 135.596C56.6214 136.503 56.824 137.196 57.2294 137.676C57.6347 138.156 58.168 138.396 58.8294 138.396ZM67.8825 139.644C67.0932 139.644 66.4105 139.479 65.8345 139.148C65.2692 138.817 64.8265 138.348 64.5065 137.74C64.1865 137.132 64.0265 136.417 64.0265 135.596C64.0265 134.967 64.1172 134.407 64.2985 133.916C64.4798 133.425 64.7358 133.004 65.0665 132.652C65.4078 132.289 65.8132 132.017 66.2825 131.836C66.7625 131.644 67.2958 131.548 67.8825 131.548C68.6612 131.548 69.3332 131.713 69.8985 132.044C70.4745 132.375 70.9225 132.844 71.2425 133.452C71.5625 134.049 71.7225 134.764 71.7225 135.596C71.7225 136.215 71.6318 136.775 71.4505 137.276C71.2692 137.777 71.0078 138.204 70.6665 138.556C70.3358 138.908 69.9305 139.18 69.4505 139.372C68.9812 139.553 68.4585 139.644 67.8825 139.644ZM67.8825 138.396C68.3198 138.396 68.7038 138.289 69.0345 138.076C69.3652 137.863 69.6212 137.548 69.8025 137.132C69.9945 136.716 70.0905 136.204 70.0905 135.596C70.0905 134.679 69.8878 133.985 69.4825 133.516C69.0772 133.047 68.5438 132.812 67.8825 132.812C67.4345 132.812 67.0452 132.919 66.7145 133.132C66.3838 133.335 66.1225 133.644 65.9305 134.06C65.7492 134.476 65.6585 134.988 65.6585 135.596C65.6585 136.503 65.8612 137.196 66.2665 137.676C66.6718 138.156 67.2105 138.396 67.8825 138.396ZM74.3374 139.596C74.0814 139.596 73.884 139.521 73.7454 139.372C73.6067 139.212 73.5374 138.993 73.5374 138.716V132.476C73.5374 132.199 73.6067 131.985 73.7454 131.836C73.884 131.687 74.0814 131.612 74.3374 131.612C74.5934 131.612 74.7907 131.687 74.9294 131.836C75.0787 131.985 75.1534 132.199 75.1534 132.476V138.716C75.1534 138.993 75.084 139.212 74.9454 139.372C74.8067 139.521 74.604 139.596 74.3374 139.596ZM74.3374 129.948C74.0174 129.948 73.7667 129.868 73.5854 129.708C73.4147 129.548 73.3294 129.324 73.3294 129.036C73.3294 128.737 73.4147 128.513 73.5854 128.364C73.7667 128.204 74.0174 128.124 74.3374 128.124C74.6574 128.124 74.9027 128.204 75.0734 128.364C75.2547 128.513 75.3454 128.737 75.3454 129.036C75.3454 129.324 75.2547 129.548 75.0734 129.708C74.9027 129.868 74.6574 129.948 74.3374 129.948ZM78.228 139.612C77.972 139.612 77.7747 139.543 77.636 139.404C77.4973 139.255 77.428 139.052 77.428 138.796V132.396C77.428 132.129 77.4973 131.927 77.636 131.788C77.7747 131.649 77.9667 131.58 78.212 131.58C78.468 131.58 78.66 131.649 78.788 131.788C78.9267 131.927 78.996 132.129 78.996 132.396V133.644L78.82 133.356C79.0547 132.759 79.4227 132.311 79.924 132.012C80.4253 131.703 81.0013 131.548 81.652 131.548C82.2707 131.548 82.7827 131.665 83.188 131.9C83.604 132.124 83.9133 132.471 84.116 132.94C84.3187 133.399 84.42 133.98 84.42 134.684V138.796C84.42 139.052 84.3507 139.255 84.212 139.404C84.0733 139.543 83.876 139.612 83.62 139.612C83.3533 139.612 83.1507 139.543 83.012 139.404C82.8733 139.255 82.804 139.052 82.804 138.796V134.78C82.804 134.108 82.6707 133.617 82.404 133.308C82.148 132.999 81.7427 132.844 81.188 132.844C80.5373 132.844 80.0147 133.047 79.62 133.452C79.236 133.857 79.044 134.401 79.044 135.084V138.796C79.044 139.34 78.772 139.612 78.228 139.612ZM89.9747 139.644C89.3347 139.644 88.7961 139.532 88.3587 139.308C87.9214 139.084 87.5961 138.753 87.3827 138.316C87.1694 137.879 87.0627 137.345 87.0627 136.716V132.94H86.1027C85.8894 132.94 85.7241 132.887 85.6067 132.78C85.4894 132.663 85.4307 132.508 85.4307 132.316C85.4307 132.113 85.4894 131.959 85.6067 131.852C85.7241 131.745 85.8894 131.692 86.1027 131.692H87.0627V130.044C87.0627 129.777 87.1321 129.575 87.2707 129.436C87.4201 129.297 87.6227 129.228 87.8787 129.228C88.1347 129.228 88.3321 129.297 88.4707 129.436C88.6094 129.575 88.6787 129.777 88.6787 130.044V131.692H90.5507C90.7641 131.692 90.9294 131.745 91.0467 131.852C91.1641 131.959 91.2227 132.113 91.2227 132.316C91.2227 132.508 91.1641 132.663 91.0467 132.78C90.9294 132.887 90.7641 132.94 90.5507 132.94H88.6787V136.588C88.6787 137.153 88.7961 137.58 89.0307 137.868C89.2761 138.156 89.6707 138.3 90.2147 138.3C90.4067 138.3 90.5721 138.284 90.7107 138.252C90.8601 138.209 90.9827 138.183 91.0787 138.172C91.1961 138.172 91.2921 138.215 91.3667 138.3C91.4414 138.375 91.4787 138.524 91.4787 138.748C91.4787 138.908 91.4467 139.057 91.3827 139.196C91.3294 139.335 91.2281 139.425 91.0787 139.468C90.9507 139.511 90.7747 139.548 90.5507 139.58C90.3374 139.623 90.1454 139.644 89.9747 139.644ZM93.3225 139.612C93.0665 139.612 92.8692 139.543 92.7305 139.404C92.5918 139.255 92.5225 139.052 92.5225 138.796V132.396C92.5225 132.129 92.5918 131.927 92.7305 131.788C92.8692 131.649 93.0612 131.58 93.3065 131.58C93.5625 131.58 93.7545 131.649 93.8825 131.788C94.0212 131.927 94.0905 132.129 94.0905 132.396V133.708L93.9145 133.356C94.1278 132.791 94.4585 132.348 94.9065 132.028C95.3545 131.708 95.8932 131.548 96.5225 131.548C97.1732 131.548 97.7012 131.703 98.1065 132.012C98.5118 132.321 98.7892 132.796 98.9385 133.436H98.7145C98.9172 132.849 99.2638 132.391 99.7545 132.06C100.245 131.719 100.816 131.548 101.466 131.548C102.064 131.548 102.554 131.665 102.938 131.9C103.322 132.124 103.61 132.471 103.802 132.94C103.994 133.399 104.09 133.98 104.09 134.684V138.796C104.09 139.052 104.016 139.255 103.866 139.404C103.728 139.543 103.53 139.612 103.274 139.612C103.018 139.612 102.821 139.543 102.682 139.404C102.544 139.255 102.474 139.052 102.474 138.796V134.764C102.474 134.103 102.357 133.617 102.122 133.308C101.898 132.999 101.525 132.844 101.002 132.844C100.416 132.844 99.9518 133.047 99.6105 133.452C99.2692 133.857 99.0985 134.417 99.0985 135.132V138.796C99.0985 139.052 99.0292 139.255 98.8905 139.404C98.7518 139.543 98.5545 139.612 98.2985 139.612C98.0425 139.612 97.8398 139.543 97.6905 139.404C97.5518 139.255 97.4825 139.052 97.4825 138.796V134.764C97.4825 134.103 97.3705 133.617 97.1465 133.308C96.9225 132.999 96.5492 132.844 96.0265 132.844C95.4398 132.844 94.9758 133.047 94.6345 133.452C94.3038 133.857 94.1385 134.417 94.1385 135.132V138.796C94.1385 139.34 93.8665 139.612 93.3225 139.612ZM110.014 139.644C109.161 139.644 108.425 139.484 107.806 139.164C107.198 138.833 106.723 138.369 106.382 137.772C106.051 137.164 105.886 136.444 105.886 135.612C105.886 134.801 106.051 134.092 106.382 133.484C106.713 132.876 107.166 132.401 107.742 132.06C108.318 131.719 108.974 131.548 109.71 131.548C110.254 131.548 110.739 131.639 111.166 131.82C111.593 131.991 111.955 132.247 112.254 132.588C112.563 132.919 112.793 133.324 112.942 133.804C113.102 134.284 113.182 134.823 113.182 135.42C113.182 135.601 113.129 135.74 113.022 135.836C112.915 135.921 112.755 135.964 112.542 135.964H107.166V134.972H112.094L111.822 135.196C111.822 134.663 111.742 134.209 111.582 133.836C111.433 133.463 111.203 133.18 110.894 132.988C110.595 132.785 110.222 132.684 109.774 132.684C109.273 132.684 108.846 132.801 108.494 133.036C108.153 133.271 107.891 133.596 107.71 134.012C107.529 134.428 107.438 134.913 107.438 135.468V135.564C107.438 136.503 107.657 137.212 108.094 137.692C108.542 138.161 109.187 138.396 110.03 138.396C110.35 138.396 110.686 138.353 111.038 138.268C111.401 138.183 111.742 138.039 112.062 137.836C112.243 137.729 112.403 137.681 112.542 137.692C112.691 137.703 112.809 137.751 112.894 137.836C112.99 137.921 113.049 138.028 113.07 138.156C113.091 138.284 113.07 138.417 113.006 138.556C112.942 138.684 112.83 138.801 112.67 138.908C112.307 139.153 111.886 139.34 111.406 139.468C110.926 139.585 110.462 139.644 110.014 139.644ZM115.744 139.612C115.488 139.612 115.29 139.543 115.152 139.404C115.013 139.255 114.944 139.052 114.944 138.796V132.396C114.944 132.129 115.013 131.927 115.152 131.788C115.29 131.649 115.482 131.58 115.728 131.58C115.984 131.58 116.176 131.649 116.304 131.788C116.442 131.927 116.512 132.129 116.512 132.396V133.644L116.336 133.356C116.57 132.759 116.938 132.311 117.44 132.012C117.941 131.703 118.517 131.548 119.168 131.548C119.786 131.548 120.298 131.665 120.704 131.9C121.12 132.124 121.429 132.471 121.632 132.94C121.834 133.399 121.936 133.98 121.936 134.684V138.796C121.936 139.052 121.866 139.255 121.728 139.404C121.589 139.543 121.392 139.612 121.136 139.612C120.869 139.612 120.666 139.543 120.528 139.404C120.389 139.255 120.32 139.052 120.32 138.796V134.78C120.32 134.108 120.186 133.617 119.92 133.308C119.664 132.999 119.258 132.844 118.704 132.844C118.053 132.844 117.53 133.047 117.136 133.452C116.752 133.857 116.56 134.401 116.56 135.084V138.796C116.56 139.34 116.288 139.612 115.744 139.612ZM127.49 139.644C126.85 139.644 126.312 139.532 125.874 139.308C125.437 139.084 125.112 138.753 124.898 138.316C124.685 137.879 124.578 137.345 124.578 136.716V132.94H123.618C123.405 132.94 123.24 132.887 123.122 132.78C123.005 132.663 122.946 132.508 122.946 132.316C122.946 132.113 123.005 131.959 123.122 131.852C123.24 131.745 123.405 131.692 123.618 131.692H124.578V130.044C124.578 129.777 124.648 129.575 124.786 129.436C124.936 129.297 125.138 129.228 125.394 129.228C125.65 129.228 125.848 129.297 125.986 129.436C126.125 129.575 126.194 129.777 126.194 130.044V131.692H128.066C128.28 131.692 128.445 131.745 128.562 131.852C128.68 131.959 128.738 132.113 128.738 132.316C128.738 132.508 128.68 132.663 128.562 132.78C128.445 132.887 128.28 132.94 128.066 132.94H126.194V136.588C126.194 137.153 126.312 137.58 126.546 137.868C126.792 138.156 127.186 138.3 127.73 138.3C127.922 138.3 128.088 138.284 128.226 138.252C128.376 138.209 128.498 138.183 128.594 138.172C128.712 138.172 128.808 138.215 128.882 138.3C128.957 138.375 128.994 138.524 128.994 138.748C128.994 138.908 128.962 139.057 128.898 139.196C128.845 139.335 128.744 139.425 128.594 139.468C128.466 139.511 128.29 139.548 128.066 139.58C127.853 139.623 127.661 139.644 127.49 139.644ZM135.297 139.5C135.009 139.5 134.785 139.425 134.625 139.276C134.476 139.116 134.401 138.892 134.401 138.604V129.116C134.401 128.828 134.476 128.609 134.625 128.46C134.785 128.3 135.009 128.22 135.297 128.22H141.137C141.361 128.22 141.532 128.279 141.649 128.396C141.766 128.503 141.825 128.663 141.825 128.876C141.825 129.1 141.766 129.271 141.649 129.388C141.532 129.505 141.361 129.564 141.137 129.564H136.001V133.1H140.785C141.02 133.1 141.19 133.159 141.297 133.276C141.414 133.393 141.473 133.559 141.473 133.772C141.473 133.996 141.414 134.167 141.297 134.284C141.19 134.391 141.02 134.444 140.785 134.444H136.001V138.156H141.137C141.361 138.156 141.532 138.215 141.649 138.332C141.766 138.449 141.825 138.615 141.825 138.828C141.825 139.052 141.766 139.223 141.649 139.34C141.532 139.447 141.361 139.5 141.137 139.5H135.297ZM146.289 139.644C145.82 139.644 145.334 139.591 144.833 139.484C144.342 139.377 143.889 139.196 143.473 138.94C143.334 138.844 143.238 138.737 143.185 138.62C143.132 138.503 143.11 138.385 143.121 138.268C143.142 138.14 143.19 138.033 143.265 137.948C143.35 137.852 143.452 137.793 143.569 137.772C143.697 137.751 143.83 137.777 143.969 137.852C144.385 138.087 144.785 138.252 145.169 138.348C145.553 138.433 145.932 138.476 146.305 138.476C146.87 138.476 147.297 138.375 147.585 138.172C147.873 137.969 148.017 137.697 148.017 137.356C148.017 137.079 147.921 136.865 147.729 136.716C147.537 136.556 147.249 136.433 146.865 136.348L145.345 136.044C144.684 135.905 144.182 135.66 143.841 135.308C143.5 134.956 143.329 134.508 143.329 133.964C143.329 133.473 143.462 133.047 143.729 132.684C143.996 132.321 144.369 132.044 144.849 131.852C145.329 131.649 145.884 131.548 146.513 131.548C146.982 131.548 147.425 131.607 147.841 131.724C148.257 131.841 148.641 132.017 148.993 132.252C149.132 132.327 149.222 132.428 149.265 132.556C149.308 132.673 149.313 132.791 149.281 132.908C149.26 133.025 149.206 133.132 149.121 133.228C149.036 133.313 148.929 133.367 148.801 133.388C148.684 133.399 148.55 133.367 148.401 133.292C148.081 133.089 147.761 132.945 147.441 132.86C147.132 132.775 146.822 132.732 146.513 132.732C145.948 132.732 145.521 132.839 145.233 133.052C144.956 133.255 144.817 133.532 144.817 133.884C144.817 134.151 144.902 134.369 145.073 134.54C145.244 134.711 145.51 134.833 145.873 134.908L147.393 135.212C148.086 135.351 148.609 135.585 148.961 135.916C149.324 136.247 149.505 136.695 149.505 137.26C149.505 137.996 149.212 138.577 148.625 139.004C148.038 139.431 147.26 139.644 146.289 139.644ZM154.743 139.644C153.943 139.644 153.25 139.479 152.663 139.148C152.087 138.807 151.639 138.332 151.319 137.724C150.999 137.105 150.839 136.38 150.839 135.548C150.839 134.929 150.93 134.375 151.111 133.884C151.292 133.383 151.548 132.961 151.879 132.62C152.22 132.279 152.631 132.017 153.111 131.836C153.602 131.644 154.146 131.548 154.743 131.548C155.116 131.548 155.506 131.607 155.911 131.724C156.327 131.831 156.711 132.012 157.063 132.268C157.202 132.353 157.287 132.46 157.319 132.588C157.362 132.705 157.367 132.828 157.335 132.956C157.314 133.084 157.255 133.196 157.159 133.292C157.074 133.377 156.967 133.431 156.839 133.452C156.711 133.463 156.572 133.425 156.423 133.34C156.167 133.159 155.906 133.031 155.639 132.956C155.372 132.871 155.116 132.828 154.871 132.828C154.487 132.828 154.146 132.892 153.847 133.02C153.559 133.137 153.314 133.313 153.111 133.548C152.908 133.772 152.754 134.055 152.647 134.396C152.551 134.737 152.503 135.127 152.503 135.564C152.503 136.439 152.706 137.127 153.111 137.628C153.527 138.119 154.114 138.364 154.871 138.364C155.116 138.364 155.372 138.327 155.639 138.252C155.906 138.177 156.167 138.049 156.423 137.868C156.572 137.783 156.711 137.751 156.839 137.772C156.967 137.793 157.068 137.852 157.143 137.948C157.228 138.033 157.282 138.14 157.303 138.268C157.335 138.385 157.33 138.508 157.287 138.636C157.244 138.764 157.154 138.871 157.015 138.956C156.674 139.201 156.3 139.377 155.895 139.484C155.5 139.591 155.116 139.644 154.743 139.644ZM162.007 139.644C161.218 139.644 160.535 139.479 159.959 139.148C159.394 138.817 158.951 138.348 158.631 137.74C158.311 137.132 158.151 136.417 158.151 135.596C158.151 134.967 158.242 134.407 158.423 133.916C158.605 133.425 158.861 133.004 159.191 132.652C159.533 132.289 159.938 132.017 160.407 131.836C160.887 131.644 161.421 131.548 162.007 131.548C162.786 131.548 163.458 131.713 164.023 132.044C164.599 132.375 165.047 132.844 165.367 133.452C165.687 134.049 165.847 134.764 165.847 135.596C165.847 136.215 165.757 136.775 165.575 137.276C165.394 137.777 165.133 138.204 164.791 138.556C164.461 138.908 164.055 139.18 163.575 139.372C163.106 139.553 162.583 139.644 162.007 139.644ZM162.007 138.396C162.445 138.396 162.829 138.289 163.159 138.076C163.49 137.863 163.746 137.548 163.927 137.132C164.119 136.716 164.215 136.204 164.215 135.596C164.215 134.679 164.013 133.985 163.607 133.516C163.202 133.047 162.669 132.812 162.007 132.812C161.559 132.812 161.17 132.919 160.839 133.132C160.509 133.335 160.247 133.644 160.055 134.06C159.874 134.476 159.783 134.988 159.783 135.596C159.783 136.503 159.986 137.196 160.391 137.676C160.797 138.156 161.335 138.396 162.007 138.396ZM168.478 139.612C168.212 139.612 168.009 139.543 167.87 139.404C167.732 139.255 167.662 139.052 167.662 138.796V132.396C167.662 132.129 167.732 131.927 167.87 131.788C168.009 131.649 168.201 131.58 168.446 131.58C168.702 131.58 168.894 131.649 169.022 131.788C169.161 131.927 169.23 132.129 169.23 132.396V133.564H169.07C169.241 132.924 169.556 132.439 170.014 132.108C170.473 131.777 171.06 131.585 171.774 131.532C171.966 131.521 172.116 131.569 172.222 131.676C172.34 131.783 172.404 131.948 172.414 132.172C172.436 132.396 172.388 132.577 172.27 132.716C172.153 132.844 171.972 132.919 171.726 132.94L171.422 132.972C170.729 133.036 170.201 133.255 169.838 133.628C169.476 134.001 169.294 134.513 169.294 135.164V138.796C169.294 139.052 169.225 139.255 169.086 139.404C168.958 139.543 168.756 139.612 168.478 139.612ZM177.397 139.644C176.757 139.644 176.218 139.532 175.781 139.308C175.343 139.084 175.018 138.753 174.805 138.316C174.591 137.879 174.485 137.345 174.485 136.716V132.94H173.525C173.311 132.94 173.146 132.887 173.029 132.78C172.911 132.663 172.853 132.508 172.853 132.316C172.853 132.113 172.911 131.959 173.029 131.852C173.146 131.745 173.311 131.692 173.525 131.692H174.485V130.044C174.485 129.777 174.554 129.575 174.693 129.436C174.842 129.297 175.045 129.228 175.301 129.228C175.557 129.228 175.754 129.297 175.893 129.436C176.031 129.575 176.101 129.777 176.101 130.044V131.692H177.973C178.186 131.692 178.351 131.745 178.469 131.852C178.586 131.959 178.645 132.113 178.645 132.316C178.645 132.508 178.586 132.663 178.469 132.78C178.351 132.887 178.186 132.94 177.973 132.94H176.101V136.588C176.101 137.153 176.218 137.58 176.453 137.868C176.698 138.156 177.093 138.3 177.637 138.3C177.829 138.3 177.994 138.284 178.133 138.252C178.282 138.209 178.405 138.183 178.501 138.172C178.618 138.172 178.714 138.215 178.789 138.3C178.863 138.375 178.901 138.524 178.901 138.748C178.901 138.908 178.869 139.057 178.805 139.196C178.751 139.335 178.65 139.425 178.501 139.468C178.373 139.511 178.197 139.548 177.973 139.58C177.759 139.623 177.567 139.644 177.397 139.644Z" fill="#5B5959"/>
</svg>
