<svg width="211" height="174" viewBox="0 0 211 174" fill="none" xmlns="http://www.w3.org/2000/svg">
<rect x="0.5" y="0.5" width="210" height="173" rx="15.5" fill="white"/>
<rect x="0.5" y="0.5" width="210" height="173" rx="15.5" stroke="#AFE9D9"/>
<g clip-path="url(#clip0_222_1910)">
<path d="M113.263 46.3417C112.051 46.6078 110.93 47.1874 110.013 48.0225C109.277 48.6874 108.721 49.5265 108.394 50.4628C108.09 51.3659 108.043 52.3357 108.257 53.2642C108.508 54.2845 109.024 55.2207 109.752 55.9784C110.374 56.6632 111.146 57.2359 111.993 57.6966C112.878 58.1751 113.831 58.5153 114.819 58.7051L115.367 58.8171L115.678 59.2902C116.973 61.2823 118.367 64.3078 119.002 67.3209C119.513 69.7487 119.538 72.2015 118.654 74.1936C117.698 76.0717 116.219 77.6328 114.396 78.6882C113.282 79.3843 112.043 79.8539 110.748 80.0702L114.831 97.8745C114.953 98.3962 114.97 98.9492 114.881 99.4775C114.793 100.006 114.601 100.511 114.316 100.965C114.032 101.419 113.66 101.812 113.223 102.121C112.785 102.43 112.291 102.65 111.769 102.768C111.246 102.889 110.705 102.906 110.176 102.818C109.647 102.73 109.14 102.538 108.685 102.253C108.231 101.969 107.837 101.597 107.526 101.16C107.215 100.722 106.994 100.228 106.875 99.7048L102.617 81.1534C100.961 84.1042 99.1686 92.8694 98.2597 97.2894C98.0107 98.522 97.8364 99.4309 97.7368 99.7919C97.6073 100.311 97.3766 100.799 97.0578 101.229C96.7389 101.659 96.3383 102.021 95.8789 102.295C95.4196 102.569 94.9105 102.75 94.3811 102.827C93.8516 102.904 93.3122 102.875 92.7939 102.743C92.2743 102.612 91.7732 102.38 91.3435 102.06C90.9138 101.74 90.5515 101.338 90.2773 100.878C90.0032 100.417 89.8226 99.9073 89.746 99.377C89.6693 98.8467 89.6981 98.3065 89.8307 97.7874C90.5154 95.1105 91.1629 92.1722 91.8725 89.0222C93.7277 80.6803 95.8816 71.0311 98.6332 64.8556C99.2059 63.5608 99.7413 62.4278 100.364 61.3695C100.837 60.5602 101.36 59.7758 102.007 59.0039C101.232 57.8947 100.674 56.6483 100.364 55.331C99.8483 53.0258 100.035 50.6191 100.899 48.4209C101.78 46.1461 103.214 44.1265 105.07 42.5442C106.863 41.0004 109.067 39.8176 111.582 39.2199C112.049 39.1072 112.533 39.0882 113.008 39.1638C113.482 39.2395 113.937 39.4084 114.345 39.6607C114.754 39.9131 115.108 40.244 115.389 40.6342C115.669 41.0244 115.869 41.4662 115.977 41.9342V41.9466C116.09 42.4135 116.109 42.8981 116.033 43.3724C115.957 43.8467 115.788 44.3014 115.536 44.71C115.284 45.1187 114.953 45.4733 114.563 45.7533C114.172 46.0334 113.731 46.2334 113.263 46.3417ZM112.653 43.7519C112.78 43.7226 112.901 43.6684 113.007 43.5924C113.114 43.5164 113.204 43.4202 113.274 43.3092C113.343 43.1982 113.39 43.0746 113.412 42.9454C113.433 42.8163 113.429 42.6842 113.4 42.5567C113.37 42.4291 113.316 42.3086 113.24 42.202C113.164 42.0954 113.068 42.0048 112.957 41.9354C112.846 41.866 112.722 41.8192 112.593 41.7976C112.464 41.7761 112.332 41.7801 112.204 41.8097H112.179C110.1 42.3077 108.27 43.2788 106.788 44.5488C105.266 45.8416 104.089 47.4933 103.364 49.3547C102.692 51.0614 102.545 52.9299 102.941 54.7209C103.227 55.941 103.813 57.1239 104.722 58.1821L105.506 59.0786L104.684 59.9501C103.838 60.859 103.19 61.7555 102.642 62.7017C102.057 63.6977 101.572 64.756 101.036 65.9388C98.3842 71.8653 96.2676 81.3775 94.4374 89.5949C93.6903 92.9068 93.0055 96.0194 92.3955 98.4348C92.3007 98.8013 92.3548 99.1904 92.5462 99.5171C92.7375 99.8437 93.0504 100.081 93.4164 100.178C93.7887 100.27 94.1824 100.212 94.5121 100.016C94.6723 99.9209 94.8121 99.7949 94.9232 99.6452C95.0344 99.4956 95.1147 99.3254 95.1595 99.1445C95.2715 98.6838 95.4334 97.8621 95.6575 96.7664C96.7283 91.5372 98.9694 80.6305 101.397 78.4143C102.456 77.4556 103.514 77.3934 104.56 78.5388L104.871 79.1364L109.453 99.1071C109.494 99.2898 109.571 99.4624 109.679 99.6152C109.787 99.768 109.924 99.8979 110.083 99.9975C110.241 100.097 110.418 100.164 110.603 100.195C110.787 100.226 110.976 100.22 111.158 100.178C111.341 100.137 111.514 100.06 111.667 99.9518C111.819 99.8437 111.949 99.7064 112.049 99.5478C112.148 99.3893 112.215 99.2126 112.246 99.028C112.277 98.8434 112.272 98.6545 112.229 98.4722L107.772 79.0244L107.299 76.9451L109.366 77.4432C110.324 77.6548 111.706 77.2191 113.014 76.4222C114.379 75.6482 115.494 74.4988 116.226 73.1104C116.848 71.7035 116.811 69.811 116.4 67.8687C115.87 65.5115 114.966 63.2543 113.723 61.1827C112.682 60.93 111.678 60.545 110.735 60.0373C109.634 59.4487 108.637 58.6832 107.784 57.7713C106.746 56.6729 106.016 55.3201 105.668 53.8494C105.345 52.4459 105.418 50.9803 105.879 49.6162C106.347 48.2573 107.147 47.0372 108.208 46.0677C109.458 44.9221 110.998 44.1237 112.653 43.7519Z" fill="#34896B"/>
<path d="M109.316 75.974C109.291 75.9872 109.266 75.9997 109.241 76.0114C109.164 76.077 109.108 76.1635 109.079 76.2604C109.013 76.4265 108.999 76.6093 109.042 76.7833C109.074 76.8817 109.135 76.9684 109.216 77.0323C109.328 77.1319 109.49 77.2191 109.714 77.2813C110.648 77.5054 112.08 77.1319 113.4 76.3226C114.65 75.6008 115.637 74.4967 116.213 73.1726C116.34 72.8457 116.592 72.5827 116.913 72.4414C117.234 72.3002 117.598 72.2922 117.925 72.4194C118.252 72.5465 118.515 72.7983 118.656 73.1193C118.798 73.4404 118.806 73.8044 118.679 74.1313C117.893 75.9976 116.526 77.5607 114.782 78.5886C112.877 79.7465 110.673 80.2445 109.092 79.8461C108.495 79.7089 107.941 79.4315 107.473 79.0368C107.004 78.6376 106.662 78.1095 106.489 77.5179C106.292 76.7901 106.331 76.0181 106.601 75.3141C106.783 74.8219 107.082 74.3816 107.473 74.0317L109.714 64.4946C109.776 64.2476 109.907 64.0235 110.093 63.8488C110.278 63.6742 110.509 63.5563 110.76 63.5091C111.01 63.462 111.268 63.4875 111.505 63.5827C111.741 63.6779 111.945 63.8388 112.092 64.0464C114.582 67.3084 114.607 69.9355 113.611 71.9774C112.665 73.9197 110.797 75.227 109.316 75.974ZM111.47 68.5908L110.785 71.5292C111.117 71.1247 111.351 70.6493 111.47 70.1398C111.588 69.6303 111.588 69.1003 111.47 68.5908ZM120.422 46.379C121.881 47.0935 123.013 48.3375 123.588 49.8575C124.162 51.3776 124.136 53.0595 123.514 54.5607C122.892 56.0619 121.721 57.2696 120.24 57.9378C118.758 58.606 117.078 58.6845 115.541 58.1572C114.562 57.8243 113.678 57.2606 112.964 56.5138C112.102 55.5728 111.54 54.3964 111.349 53.1347C111.158 51.873 111.348 50.5831 111.893 49.4294C112.251 48.6675 112.756 47.9839 113.379 47.4178C114.002 46.8518 114.73 46.4144 115.523 46.131C116.316 45.8475 117.156 45.7235 117.997 45.766C118.838 45.8086 119.662 46.0169 120.422 46.379ZM119.301 48.782C118.856 48.5674 118.373 48.4432 117.879 48.4166C117.386 48.39 116.892 48.4616 116.427 48.6272C115.961 48.7928 115.533 49.0491 115.167 49.3813C114.802 49.7135 114.505 50.1149 114.296 50.5624C113.973 51.2364 113.86 51.9919 113.971 52.731C114.082 53.4701 114.412 54.159 114.918 54.7084C115.292 55.1193 115.827 55.4555 116.425 55.6547C117.035 55.8663 117.67 55.9535 118.23 55.8788C118.78 55.8008 119.306 55.6012 119.769 55.2945C120.231 54.9878 120.62 54.5818 120.906 54.1059C121.193 53.6301 121.369 53.0964 121.423 52.5437C121.477 51.991 121.407 51.4333 121.218 50.911C121.053 50.4463 120.798 50.0189 120.466 49.6535C120.135 49.2881 119.747 48.9919 119.301 48.782Z" fill="#319D77"/>
</g>
<path d="M57.708 139.5C57.42 139.5 57.196 139.425 57.036 139.276C56.8867 139.116 56.812 138.892 56.812 138.604V129.116C56.812 128.828 56.8867 128.609 57.036 128.46C57.196 128.3 57.42 128.22 57.708 128.22H63.548C63.772 128.22 63.9427 128.279 64.06 128.396C64.1773 128.503 64.236 128.663 64.236 128.876C64.236 129.1 64.1773 129.271 64.06 129.388C63.9427 129.505 63.772 129.564 63.548 129.564H58.412V133.1H63.196C63.4307 133.1 63.6013 133.159 63.708 133.276C63.8253 133.393 63.884 133.559 63.884 133.772C63.884 133.996 63.8253 134.167 63.708 134.284C63.6013 134.391 63.4307 134.444 63.196 134.444H58.412V138.156H63.548C63.772 138.156 63.9427 138.215 64.06 138.332C64.1773 138.449 64.236 138.615 64.236 138.828C64.236 139.052 64.1773 139.223 64.06 139.34C63.9427 139.447 63.772 139.5 63.548 139.5H57.708ZM66.3299 139.596C66.1379 139.596 65.9779 139.543 65.8499 139.436C65.7325 139.319 65.6685 139.175 65.6579 139.004C65.6579 138.833 65.7325 138.647 65.8819 138.444L68.5859 135.068V135.868L66.0579 132.716C65.8872 132.524 65.8072 132.343 65.8179 132.172C65.8285 131.991 65.8979 131.847 66.0259 131.74C66.1539 131.633 66.3085 131.58 66.4899 131.58C66.6925 131.58 66.8579 131.617 66.9859 131.692C67.1245 131.756 67.2525 131.868 67.3699 132.028L69.4979 134.732H68.9219L71.0659 132.028C71.1832 131.868 71.3059 131.756 71.4339 131.692C71.5725 131.617 71.7379 131.58 71.9299 131.58C72.1219 131.58 72.2765 131.639 72.3939 131.756C72.5219 131.863 72.5859 132.007 72.5859 132.188C72.5965 132.359 72.5219 132.54 72.3619 132.732L69.8339 135.836V135.116L72.5379 138.444C72.6979 138.636 72.7725 138.823 72.7619 139.004C72.7619 139.175 72.6979 139.319 72.5699 139.436C72.4419 139.543 72.2819 139.596 72.0899 139.596C71.8979 139.596 71.7325 139.559 71.5939 139.484C71.4659 139.409 71.3379 139.297 71.2099 139.148L68.9219 136.268H69.4659L67.1939 139.148C67.0765 139.287 66.9485 139.399 66.8099 139.484C66.6819 139.559 66.5219 139.596 66.3299 139.596ZM78.0813 139.644C77.2279 139.644 76.4919 139.484 75.8733 139.164C75.2653 138.833 74.7906 138.369 74.4493 137.772C74.1186 137.164 73.9533 136.444 73.9533 135.612C73.9533 134.801 74.1186 134.092 74.4493 133.484C74.7799 132.876 75.2333 132.401 75.8093 132.06C76.3853 131.719 77.0413 131.548 77.7773 131.548C78.3213 131.548 78.8066 131.639 79.2333 131.82C79.6599 131.991 80.0226 132.247 80.3213 132.588C80.6306 132.919 80.8599 133.324 81.0093 133.804C81.1693 134.284 81.2493 134.823 81.2493 135.42C81.2493 135.601 81.1959 135.74 81.0893 135.836C80.9826 135.921 80.8226 135.964 80.6093 135.964H75.2333V134.972H80.1613L79.8893 135.196C79.8893 134.663 79.8093 134.209 79.6493 133.836C79.4999 133.463 79.2706 133.18 78.9613 132.988C78.6626 132.785 78.2893 132.684 77.8413 132.684C77.3399 132.684 76.9133 132.801 76.5613 133.036C76.2199 133.271 75.9586 133.596 75.7773 134.012C75.5959 134.428 75.5053 134.913 75.5053 135.468V135.564C75.5053 136.503 75.7239 137.212 76.1613 137.692C76.6093 138.161 77.2546 138.396 78.0973 138.396C78.4173 138.396 78.7533 138.353 79.1053 138.268C79.4679 138.183 79.8093 138.039 80.1293 137.836C80.3106 137.729 80.4706 137.681 80.6093 137.692C80.7586 137.703 80.8759 137.751 80.9613 137.836C81.0573 137.921 81.1159 138.028 81.1373 138.156C81.1586 138.284 81.1373 138.417 81.0733 138.556C81.0093 138.684 80.8973 138.801 80.7373 138.908C80.3746 139.153 79.9533 139.34 79.4733 139.468C78.9933 139.585 78.5293 139.644 78.0813 139.644ZM83.827 139.612C83.5603 139.612 83.3577 139.543 83.219 139.404C83.0803 139.255 83.011 139.052 83.011 138.796V132.396C83.011 132.129 83.0803 131.927 83.219 131.788C83.3577 131.649 83.5497 131.58 83.795 131.58C84.051 131.58 84.243 131.649 84.371 131.788C84.5097 131.927 84.579 132.129 84.579 132.396V133.564H84.419C84.5897 132.924 84.9043 132.439 85.363 132.108C85.8217 131.777 86.4083 131.585 87.123 131.532C87.315 131.521 87.4643 131.569 87.571 131.676C87.6883 131.783 87.7523 131.948 87.763 132.172C87.7843 132.396 87.7363 132.577 87.619 132.716C87.5017 132.844 87.3203 132.919 87.075 132.94L86.771 132.972C86.0777 133.036 85.5497 133.255 85.187 133.628C84.8243 134.001 84.643 134.513 84.643 135.164V138.796C84.643 139.052 84.5737 139.255 84.435 139.404C84.307 139.543 84.1043 139.612 83.827 139.612ZM92.3104 139.644C91.5104 139.644 90.817 139.479 90.2304 139.148C89.6544 138.807 89.2064 138.332 88.8864 137.724C88.5664 137.105 88.4064 136.38 88.4064 135.548C88.4064 134.929 88.497 134.375 88.6784 133.884C88.8597 133.383 89.1157 132.961 89.4464 132.62C89.7877 132.279 90.1984 132.017 90.6784 131.836C91.169 131.644 91.713 131.548 92.3104 131.548C92.6837 131.548 93.073 131.607 93.4784 131.724C93.8944 131.831 94.2784 132.012 94.6304 132.268C94.769 132.353 94.8544 132.46 94.8864 132.588C94.929 132.705 94.9344 132.828 94.9024 132.956C94.881 133.084 94.8224 133.196 94.7264 133.292C94.641 133.377 94.5344 133.431 94.4064 133.452C94.2784 133.463 94.1397 133.425 93.9904 133.34C93.7344 133.159 93.473 133.031 93.2064 132.956C92.9397 132.871 92.6837 132.828 92.4384 132.828C92.0544 132.828 91.713 132.892 91.4144 133.02C91.1264 133.137 90.881 133.313 90.6784 133.548C90.4757 133.772 90.321 134.055 90.2144 134.396C90.1184 134.737 90.0704 135.127 90.0704 135.564C90.0704 136.439 90.273 137.127 90.6784 137.628C91.0944 138.119 91.681 138.364 92.4384 138.364C92.6837 138.364 92.9397 138.327 93.2064 138.252C93.473 138.177 93.7344 138.049 93.9904 137.868C94.1397 137.783 94.2784 137.751 94.4064 137.772C94.5344 137.793 94.6357 137.852 94.7104 137.948C94.7957 138.033 94.849 138.14 94.8704 138.268C94.9024 138.385 94.897 138.508 94.8544 138.636C94.8117 138.764 94.721 138.871 94.5824 138.956C94.241 139.201 93.8677 139.377 93.4624 139.484C93.0677 139.591 92.6837 139.644 92.3104 139.644ZM97.1391 139.596C96.8831 139.596 96.6858 139.521 96.5471 139.372C96.4085 139.212 96.3391 138.993 96.3391 138.716V132.476C96.3391 132.199 96.4085 131.985 96.5471 131.836C96.6858 131.687 96.8831 131.612 97.1391 131.612C97.3951 131.612 97.5925 131.687 97.7311 131.836C97.8805 131.985 97.9551 132.199 97.9551 132.476V138.716C97.9551 138.993 97.8858 139.212 97.7471 139.372C97.6085 139.521 97.4058 139.596 97.1391 139.596ZM97.1391 129.948C96.8191 129.948 96.5685 129.868 96.3871 129.708C96.2165 129.548 96.1311 129.324 96.1311 129.036C96.1311 128.737 96.2165 128.513 96.3871 128.364C96.5685 128.204 96.8191 128.124 97.1391 128.124C97.4591 128.124 97.7045 128.204 97.8751 128.364C98.0565 128.513 98.1471 128.737 98.1471 129.036C98.1471 129.324 98.0565 129.548 97.8751 129.708C97.7045 129.868 97.4591 129.948 97.1391 129.948ZM102.966 139.644C102.496 139.644 102.011 139.591 101.51 139.484C101.019 139.377 100.566 139.196 100.15 138.94C100.011 138.844 99.9151 138.737 99.8618 138.62C99.8084 138.503 99.7871 138.385 99.7978 138.268C99.8191 138.14 99.8671 138.033 99.9418 137.948C100.027 137.852 100.128 137.793 100.246 137.772C100.374 137.751 100.507 137.777 100.646 137.852C101.062 138.087 101.462 138.252 101.846 138.348C102.23 138.433 102.608 138.476 102.982 138.476C103.547 138.476 103.974 138.375 104.262 138.172C104.55 137.969 104.694 137.697 104.694 137.356C104.694 137.079 104.598 136.865 104.406 136.716C104.214 136.556 103.926 136.433 103.542 136.348L102.022 136.044C101.36 135.905 100.859 135.66 100.518 135.308C100.176 134.956 100.006 134.508 100.006 133.964C100.006 133.473 100.139 133.047 100.406 132.684C100.672 132.321 101.046 132.044 101.526 131.852C102.006 131.649 102.56 131.548 103.19 131.548C103.659 131.548 104.102 131.607 104.518 131.724C104.934 131.841 105.318 132.017 105.67 132.252C105.808 132.327 105.899 132.428 105.942 132.556C105.984 132.673 105.99 132.791 105.958 132.908C105.936 133.025 105.883 133.132 105.798 133.228C105.712 133.313 105.606 133.367 105.478 133.388C105.36 133.399 105.227 133.367 105.078 133.292C104.758 133.089 104.438 132.945 104.118 132.86C103.808 132.775 103.499 132.732 103.19 132.732C102.624 132.732 102.198 132.839 101.91 133.052C101.632 133.255 101.494 133.532 101.494 133.884C101.494 134.151 101.579 134.369 101.75 134.54C101.92 134.711 102.187 134.833 102.55 134.908L104.07 135.212C104.763 135.351 105.286 135.585 105.638 135.916C106 136.247 106.182 136.695 106.182 137.26C106.182 137.996 105.888 138.577 105.302 139.004C104.715 139.431 103.936 139.644 102.966 139.644ZM111.644 139.644C110.79 139.644 110.054 139.484 109.436 139.164C108.828 138.833 108.353 138.369 108.012 137.772C107.681 137.164 107.516 136.444 107.516 135.612C107.516 134.801 107.681 134.092 108.012 133.484C108.342 132.876 108.796 132.401 109.372 132.06C109.948 131.719 110.604 131.548 111.34 131.548C111.884 131.548 112.369 131.639 112.796 131.82C113.222 131.991 113.585 132.247 113.884 132.588C114.193 132.919 114.422 133.324 114.572 133.804C114.732 134.284 114.812 134.823 114.812 135.42C114.812 135.601 114.758 135.74 114.652 135.836C114.545 135.921 114.385 135.964 114.172 135.964H108.796V134.972H113.724L113.452 135.196C113.452 134.663 113.372 134.209 113.212 133.836C113.062 133.463 112.833 133.18 112.524 132.988C112.225 132.785 111.852 132.684 111.404 132.684C110.902 132.684 110.476 132.801 110.124 133.036C109.782 133.271 109.521 133.596 109.34 134.012C109.158 134.428 109.068 134.913 109.068 135.468V135.564C109.068 136.503 109.286 137.212 109.724 137.692C110.172 138.161 110.817 138.396 111.66 138.396C111.98 138.396 112.316 138.353 112.668 138.268C113.03 138.183 113.372 138.039 113.692 137.836C113.873 137.729 114.033 137.681 114.172 137.692C114.321 137.703 114.438 137.751 114.524 137.836C114.62 137.921 114.678 138.028 114.7 138.156C114.721 138.284 114.7 138.417 114.636 138.556C114.572 138.684 114.46 138.801 114.3 138.908C113.937 139.153 113.516 139.34 113.036 139.468C112.556 139.585 112.092 139.644 111.644 139.644ZM121.8 139.612C121.534 139.612 121.326 139.537 121.176 139.388C121.038 139.239 120.968 139.031 120.968 138.764V128.956C120.968 128.679 121.038 128.471 121.176 128.332C121.326 128.183 121.534 128.108 121.8 128.108C122.067 128.108 122.27 128.183 122.408 128.332C122.558 128.471 122.632 128.679 122.632 128.956V133.084H128.952V128.956C128.952 128.679 129.022 128.471 129.16 128.332C129.31 128.183 129.518 128.108 129.784 128.108C130.051 128.108 130.254 128.183 130.392 128.332C130.531 128.471 130.6 128.679 130.6 128.956V138.764C130.6 139.031 130.531 139.239 130.392 139.388C130.254 139.537 130.051 139.612 129.784 139.612C129.518 139.612 129.31 139.537 129.16 139.388C129.022 139.239 128.952 139.031 128.952 138.764V134.476H122.632V138.764C122.632 139.031 122.563 139.239 122.424 139.388C122.286 139.537 122.078 139.612 121.8 139.612ZM136.722 139.644C135.869 139.644 135.133 139.484 134.514 139.164C133.906 138.833 133.431 138.369 133.09 137.772C132.759 137.164 132.594 136.444 132.594 135.612C132.594 134.801 132.759 134.092 133.09 133.484C133.421 132.876 133.874 132.401 134.45 132.06C135.026 131.719 135.682 131.548 136.418 131.548C136.962 131.548 137.447 131.639 137.874 131.82C138.301 131.991 138.663 132.247 138.962 132.588C139.271 132.919 139.501 133.324 139.65 133.804C139.81 134.284 139.89 134.823 139.89 135.42C139.89 135.601 139.837 135.74 139.73 135.836C139.623 135.921 139.463 135.964 139.25 135.964H133.874V134.972H138.802L138.53 135.196C138.53 134.663 138.45 134.209 138.29 133.836C138.141 133.463 137.911 133.18 137.602 132.988C137.303 132.785 136.93 132.684 136.482 132.684C135.981 132.684 135.554 132.801 135.202 133.036C134.861 133.271 134.599 133.596 134.418 134.012C134.237 134.428 134.146 134.913 134.146 135.468V135.564C134.146 136.503 134.365 137.212 134.802 137.692C135.25 138.161 135.895 138.396 136.738 138.396C137.058 138.396 137.394 138.353 137.746 138.268C138.109 138.183 138.45 138.039 138.77 137.836C138.951 137.729 139.111 137.681 139.25 137.692C139.399 137.703 139.517 137.751 139.602 137.836C139.698 137.921 139.757 138.028 139.778 138.156C139.799 138.284 139.778 138.417 139.714 138.556C139.65 138.684 139.538 138.801 139.378 138.908C139.015 139.153 138.594 139.34 138.114 139.468C137.634 139.585 137.17 139.644 136.722 139.644ZM144.164 139.644C143.332 139.644 142.702 139.404 142.276 138.924C141.86 138.433 141.652 137.729 141.652 136.812V128.924C141.652 128.657 141.721 128.455 141.86 128.316C141.998 128.177 142.196 128.108 142.452 128.108C142.708 128.108 142.905 128.177 143.044 128.316C143.193 128.455 143.268 128.657 143.268 128.924V136.716C143.268 137.249 143.374 137.649 143.588 137.916C143.812 138.172 144.132 138.3 144.548 138.3C144.644 138.3 144.729 138.3 144.804 138.3C144.878 138.289 144.953 138.279 145.028 138.268C145.156 138.257 145.246 138.295 145.3 138.38C145.353 138.455 145.38 138.615 145.38 138.86C145.38 139.084 145.332 139.26 145.236 139.388C145.14 139.505 144.985 139.58 144.772 139.612C144.676 139.623 144.574 139.628 144.468 139.628C144.361 139.639 144.26 139.644 144.164 139.644ZM147.342 142.492C147.086 142.492 146.889 142.423 146.75 142.284C146.612 142.145 146.542 141.943 146.542 141.676V132.396C146.542 132.129 146.612 131.927 146.75 131.788C146.889 131.649 147.081 131.58 147.326 131.58C147.582 131.58 147.78 131.649 147.918 131.788C148.057 131.927 148.126 132.129 148.126 132.396V133.788L147.95 133.452C148.121 132.876 148.457 132.417 148.958 132.076C149.46 131.724 150.052 131.548 150.734 131.548C151.428 131.548 152.03 131.713 152.542 132.044C153.065 132.375 153.465 132.839 153.742 133.436C154.03 134.033 154.174 134.753 154.174 135.596C154.174 136.417 154.03 137.137 153.742 137.756C153.465 138.364 153.07 138.833 152.558 139.164C152.046 139.484 151.438 139.644 150.734 139.644C150.062 139.644 149.476 139.473 148.974 139.132C148.473 138.791 148.137 138.337 147.966 137.772H148.158V141.676C148.158 141.943 148.084 142.145 147.934 142.284C147.796 142.423 147.598 142.492 147.342 142.492ZM150.334 138.396C150.782 138.396 151.172 138.289 151.502 138.076C151.833 137.863 152.089 137.548 152.27 137.132C152.452 136.716 152.542 136.204 152.542 135.596C152.542 134.679 152.34 133.985 151.934 133.516C151.54 133.047 151.006 132.812 150.334 132.812C149.897 132.812 149.508 132.919 149.166 133.132C148.836 133.335 148.58 133.644 148.398 134.06C148.217 134.476 148.126 134.988 148.126 135.596C148.126 136.503 148.329 137.196 148.734 137.676C149.14 138.156 149.673 138.396 150.334 138.396Z" fill="#5B5959"/>
<defs>
<clipPath id="clip0_222_1910">
<rect width="85" height="85" fill="white" transform="translate(63 28.5)"/>
</clipPath>
</defs>
</svg>
