<svg width="195" height="44" viewBox="0 0 195 44" fill="none" xmlns="http://www.w3.org/2000/svg">
<path d="M25.9998 22.7627L15.9997 32.6667L5.99975 22.7627C5.34016 22.1208 4.82061 21.3493 4.47381 20.4968C4.12702 19.6443 3.9605 18.7293 3.98473 17.8092C4.00897 16.8892 4.22343 15.9842 4.61463 15.1511C5.00582 14.318 5.56526 13.575 6.25773 12.9688C6.9502 12.3625 7.76069 11.9062 8.63817 11.6286C9.51564 11.351 10.4411 11.2581 11.3562 11.3557C12.2714 11.4534 13.1564 11.7394 13.9556 12.1959C14.7548 12.6523 15.4507 13.2693 15.9997 14.008C16.5511 13.2747 17.2479 12.6631 18.0466 12.2115C18.8452 11.7598 19.7284 11.4779 20.641 11.3834C21.5536 11.2888 22.4759 11.3836 23.3501 11.6618C24.2244 11.9401 25.0318 12.3958 25.7218 13.0005C26.4119 13.6051 26.9697 14.3457 27.3603 15.1758C27.751 16.006 27.9661 16.9078 27.9922 17.8249C28.0183 18.742 27.8548 19.6546 27.5119 20.5057C27.1691 21.3567 26.6543 22.1278 25.9998 22.7707" stroke="#217860" stroke-width="2" stroke-linecap="round" stroke-linejoin="round"/>
<path d="M15.9998 14L11.6091 18.3907C11.3592 18.6407 11.2188 18.9798 11.2188 19.3333C11.2188 19.6869 11.3592 20.026 11.6091 20.276L12.3331 21C13.2531 21.92 14.7465 21.92 15.6665 21L16.9998 19.6667C17.3936 19.2724 17.8612 18.9596 18.376 18.7462C18.8908 18.5328 19.4425 18.4229 19.9998 18.4229C20.557 18.4229 21.1088 18.5328 21.6236 18.7462C22.1384 18.9596 22.606 19.2724 22.9998 19.6667L25.9998 22.6667M16.6665 26.6667L19.3331 29.3333M19.9998 23.3333L22.6665 26" stroke="#217860" stroke-width="2" stroke-linecap="round" stroke-linejoin="round"/>
<path d="M44.64 33C43.936 33 43.392 32.8187 43.008 32.456C42.6453 32.072 42.464 31.528 42.464 30.824V12.616C42.464 11.912 42.6453 11.3787 43.008 11.016C43.392 10.632 43.936 10.44 44.64 10.44H56.064C56.5973 10.44 57.0027 10.5787 57.28 10.856C57.5787 11.1333 57.728 11.528 57.728 12.04C57.728 12.5733 57.5787 12.9893 57.28 13.288C57.0027 13.5653 56.5973 13.704 56.064 13.704H46.4V19.912H55.36C55.9147 19.912 56.3307 20.0507 56.608 20.328C56.8853 20.6053 57.024 21.0107 57.024 21.544C57.024 22.0773 56.8853 22.4827 56.608 22.76C56.3307 23.0373 55.9147 23.176 55.36 23.176H46.4V29.736H56.064C56.5973 29.736 57.0027 29.8747 57.28 30.152C57.5787 30.4293 57.728 30.8347 57.728 31.368C57.728 31.9013 57.5787 32.3067 57.28 32.584C57.0027 32.8613 56.5973 33 56.064 33H44.64ZM66.5178 33.32C64.7471 33.32 63.4138 32.8187 62.5178 31.816C61.6218 30.792 61.1738 29.2987 61.1738 27.336V12.2C61.1738 11.5387 61.3444 11.0373 61.6858 10.696C62.0271 10.3547 62.5178 10.184 63.1578 10.184C63.7978 10.184 64.2884 10.3547 64.6298 10.696C64.9924 11.0373 65.1738 11.5387 65.1738 12.2V27.144C65.1738 28.1253 65.3764 28.8507 65.7818 29.32C66.2084 29.7893 66.8058 30.024 67.5738 30.024C67.7444 30.024 67.9044 30.024 68.0538 30.024C68.2031 30.0027 68.3524 29.9813 68.5017 29.96C68.8004 29.9173 69.0031 30.0027 69.1098 30.216C69.2164 30.408 69.2698 30.8133 69.2698 31.432C69.2698 31.9653 69.1631 32.3813 68.9498 32.68C68.7364 32.9787 68.3844 33.16 67.8938 33.224C67.6804 33.2453 67.4564 33.2667 67.2218 33.288C66.9871 33.3093 66.7524 33.32 66.5178 33.32ZM77.2523 33.32C75.8869 33.32 74.6816 32.9893 73.6363 32.328C72.6123 31.6667 71.8123 30.728 71.2363 29.512C70.6603 28.2747 70.3723 26.824 70.3723 25.16C70.3723 23.4747 70.6603 22.0347 71.2363 20.84C71.8123 19.624 72.6123 18.6853 73.6363 18.024C74.6816 17.3627 75.8869 17.032 77.2523 17.032C78.5536 17.032 79.6843 17.352 80.6443 17.992C81.6256 18.632 82.2869 19.4747 82.6283 20.52H82.2763V12.2C82.2763 11.5387 82.4469 11.0373 82.7883 10.696C83.1296 10.3547 83.6203 10.184 84.2603 10.184C84.9003 10.184 85.3909 10.3547 85.7323 10.696C86.0949 11.0373 86.2763 11.5387 86.2763 12.2V31.208C86.2763 31.8693 86.1056 32.3813 85.7643 32.744C85.4229 33.0853 84.9323 33.256 84.2923 33.256C83.6523 33.256 83.1616 33.0853 82.8203 32.744C82.4789 32.3813 82.3083 31.8693 82.3083 31.208V28.712L82.6603 29.672C82.3403 30.7813 81.6896 31.6667 80.7083 32.328C79.7269 32.9893 78.5749 33.32 77.2523 33.32ZM78.3723 30.28C79.1616 30.28 79.8549 30.088 80.4523 29.704C81.0496 29.32 81.5083 28.7547 81.8283 28.008C82.1696 27.24 82.3403 26.2907 82.3403 25.16C82.3403 23.4533 81.9776 22.184 81.2523 21.352C80.5269 20.4987 79.5669 20.072 78.3723 20.072C77.5829 20.072 76.8896 20.264 76.2923 20.648C75.6949 21.0107 75.2256 21.576 74.8843 22.344C74.5643 23.0907 74.4043 24.0293 74.4043 25.16C74.4043 26.8453 74.7669 28.1253 75.4923 29C76.2176 29.8533 77.1776 30.28 78.3723 30.28ZM98.1358 33.32C96.3651 33.32 94.8398 32.9893 93.5598 32.328C92.2798 31.6667 91.2878 30.728 90.5838 29.512C89.9011 28.296 89.5598 26.856 89.5598 25.192C89.5598 23.5707 89.8904 22.152 90.5518 20.936C91.2344 19.72 92.1624 18.7707 93.3358 18.088C94.5304 17.384 95.8851 17.032 97.3998 17.032C98.5091 17.032 99.5011 17.2133 100.376 17.576C101.272 17.9387 102.029 18.4613 102.648 19.144C103.288 19.8267 103.768 20.6587 104.088 21.64C104.429 22.6 104.6 23.688 104.6 24.904C104.6 25.288 104.461 25.5867 104.184 25.8C103.928 25.992 103.554 26.088 103.064 26.088H92.7918V23.784H101.784L101.272 24.264C101.272 23.2827 101.122 22.4613 100.824 21.8C100.546 21.1387 100.13 20.6373 99.5758 20.296C99.0424 19.9333 98.3704 19.752 97.5598 19.752C96.6638 19.752 95.8958 19.9653 95.2558 20.392C94.6371 20.7973 94.1571 21.384 93.8158 22.152C93.4958 22.8987 93.3358 23.7947 93.3358 24.84V25.064C93.3358 26.8133 93.7411 28.1253 94.5518 29C95.3838 29.8533 96.5998 30.28 98.1998 30.28C98.7544 30.28 99.3731 30.216 100.056 30.088C100.76 29.9387 101.421 29.6933 102.04 29.352C102.488 29.096 102.882 28.9893 103.224 29.032C103.565 29.0533 103.832 29.1707 104.024 29.384C104.237 29.5973 104.365 29.864 104.408 30.184C104.45 30.4827 104.386 30.792 104.216 31.112C104.066 31.432 103.8 31.7093 103.416 31.944C102.669 32.4133 101.805 32.7653 100.824 33C99.8638 33.2133 98.9678 33.32 98.1358 33.32ZM109.816 33.256C109.154 33.256 108.642 33.0853 108.28 32.744C107.938 32.3813 107.768 31.8693 107.768 31.208V19.112C107.768 18.4507 107.938 17.9493 108.28 17.608C108.621 17.2667 109.101 17.096 109.72 17.096C110.338 17.096 110.818 17.2667 111.16 17.608C111.501 17.9493 111.672 18.4507 111.672 19.112V21.128H111.352C111.65 19.848 112.237 18.8773 113.112 18.216C113.986 17.5547 115.149 17.16 116.6 17.032C117.048 16.9893 117.4 17.1067 117.656 17.384C117.933 17.64 118.093 18.0453 118.136 18.6C118.178 19.1333 118.05 19.5707 117.752 19.912C117.474 20.232 117.048 20.424 116.472 20.488L115.768 20.552C114.466 20.68 113.485 21.0853 112.824 21.768C112.162 22.4293 111.832 23.368 111.832 24.584V31.208C111.832 31.8693 111.661 32.3813 111.32 32.744C110.978 33.0853 110.477 33.256 109.816 33.256ZM128.171 33.256C127.509 33.256 126.997 33.0747 126.635 32.712C126.293 32.328 126.123 31.8053 126.123 31.144V13.864H119.883C119.328 13.864 118.891 13.7147 118.571 13.416C118.272 13.096 118.123 12.6693 118.123 12.136C118.123 11.5813 118.272 11.1653 118.571 10.888C118.891 10.5893 119.328 10.44 119.883 10.44H136.459C137.013 10.44 137.44 10.5893 137.739 10.888C138.059 11.1653 138.219 11.5813 138.219 12.136C138.219 12.6693 138.059 13.096 137.739 13.416C137.44 13.7147 137.013 13.864 136.459 13.864H130.219V31.144C130.219 31.8053 130.048 32.328 129.707 32.712C129.365 33.0747 128.853 33.256 128.171 33.256ZM139.722 33.256C139.06 33.256 138.548 33.0853 138.186 32.744C137.844 32.3813 137.674 31.8693 137.674 31.208V19.112C137.674 18.4507 137.844 17.9493 138.186 17.608C138.527 17.2667 139.007 17.096 139.626 17.096C140.244 17.096 140.724 17.2667 141.066 17.608C141.407 17.9493 141.578 18.4507 141.578 19.112V21.128H141.258C141.556 19.848 142.143 18.8773 143.018 18.216C143.892 17.5547 145.055 17.16 146.506 17.032C146.954 16.9893 147.306 17.1067 147.562 17.384C147.839 17.64 147.999 18.0453 148.042 18.6C148.084 19.1333 147.956 19.5707 147.658 19.912C147.38 20.232 146.954 20.424 146.378 20.488L145.674 20.552C144.372 20.68 143.391 21.0853 142.73 21.768C142.068 22.4293 141.738 23.368 141.738 24.584V31.208C141.738 31.8693 141.567 32.3813 141.226 32.744C140.884 33.0853 140.383 33.256 139.722 33.256ZM155.869 33.32C154.568 33.32 153.49 33.0853 152.637 32.616C151.784 32.1253 151.144 31.4 150.717 30.44C150.312 29.48 150.109 28.2853 150.109 26.856V19.112C150.109 18.4293 150.28 17.928 150.621 17.608C150.962 17.2667 151.453 17.096 152.093 17.096C152.733 17.096 153.224 17.2667 153.565 17.608C153.928 17.928 154.109 18.4293 154.109 19.112V26.92C154.109 28.0293 154.333 28.8507 154.781 29.384C155.229 29.9173 155.944 30.184 156.925 30.184C157.992 30.184 158.866 29.8213 159.549 29.096C160.232 28.3493 160.573 27.368 160.573 26.152V19.112C160.573 18.4293 160.744 17.928 161.085 17.608C161.426 17.2667 161.917 17.096 162.557 17.096C163.197 17.096 163.688 17.2667 164.029 17.608C164.392 17.928 164.573 18.4293 164.573 19.112V31.208C164.573 32.5733 163.922 33.256 162.621 33.256C162.002 33.256 161.522 33.0853 161.181 32.744C160.84 32.3813 160.669 31.8693 160.669 31.208V28.776L161.117 29.736C160.669 30.888 159.986 31.7733 159.069 32.392C158.173 33.0107 157.106 33.32 155.869 33.32ZM174.464 33.32C173.547 33.32 172.576 33.224 171.552 33.032C170.528 32.84 169.611 32.5093 168.8 32.04C168.459 31.8267 168.214 31.5813 168.064 31.304C167.936 31.0053 167.883 30.7173 167.904 30.44C167.947 30.1413 168.054 29.8853 168.224 29.672C168.416 29.4587 168.651 29.32 168.928 29.256C169.227 29.192 169.547 29.2453 169.888 29.416C170.742 29.8213 171.542 30.1093 172.288 30.28C173.035 30.4293 173.771 30.504 174.496 30.504C175.52 30.504 176.278 30.3333 176.768 29.992C177.28 29.6293 177.536 29.16 177.536 28.584C177.536 28.0933 177.366 27.72 177.024 27.464C176.704 27.1867 176.214 26.984 175.552 26.856L172.352 26.248C171.03 25.992 170.016 25.512 169.312 24.808C168.63 24.0827 168.288 23.1547 168.288 22.024C168.288 21 168.566 20.1147 169.12 19.368C169.696 18.6213 170.486 18.0453 171.488 17.64C172.491 17.2347 173.643 17.032 174.944 17.032C175.883 17.032 176.758 17.1387 177.568 17.352C178.4 17.544 179.2 17.8533 179.968 18.28C180.288 18.4507 180.502 18.6747 180.608 18.952C180.736 19.2293 180.768 19.5173 180.704 19.816C180.64 20.0933 180.512 20.3493 180.32 20.584C180.128 20.7973 179.883 20.936 179.584 21C179.307 21.0427 178.987 20.9787 178.624 20.808C177.963 20.4667 177.323 20.2213 176.704 20.072C176.107 19.9227 175.531 19.848 174.976 19.848C173.931 19.848 173.152 20.0293 172.64 20.392C172.15 20.7547 171.904 21.2347 171.904 21.832C171.904 22.28 172.054 22.6533 172.352 22.952C172.651 23.2507 173.11 23.4533 173.728 23.56L176.928 24.168C178.315 24.424 179.36 24.8933 180.064 25.576C180.79 26.2587 181.152 27.176 181.152 28.328C181.152 29.8853 180.544 31.112 179.328 32.008C178.112 32.8827 176.491 33.32 174.464 33.32ZM191.373 33.32C189.986 33.32 188.824 33.0853 187.885 32.616C186.968 32.1467 186.285 31.464 185.837 30.568C185.389 29.6507 185.165 28.52 185.165 27.176V20.36H183.501C182.989 20.36 182.594 20.232 182.317 19.976C182.04 19.6987 181.901 19.3253 181.901 18.856C181.901 18.3653 182.04 17.992 182.317 17.736C182.594 17.48 182.989 17.352 183.501 17.352H185.165V14.44C185.165 13.7787 185.336 13.2773 185.677 12.936C186.04 12.5947 186.541 12.424 187.181 12.424C187.821 12.424 188.312 12.5947 188.653 12.936C188.994 13.2773 189.165 13.7787 189.165 14.44V17.352H192.557C193.069 17.352 193.464 17.48 193.741 17.736C194.018 17.992 194.157 18.3653 194.157 18.856C194.157 19.3253 194.018 19.6987 193.741 19.976C193.464 20.232 193.069 20.36 192.557 20.36H189.165V26.952C189.165 27.976 189.389 28.744 189.837 29.256C190.285 29.768 191.01 30.024 192.013 30.024C192.376 30.024 192.696 29.992 192.973 29.928C193.25 29.864 193.496 29.8213 193.709 29.8C193.965 29.7787 194.178 29.864 194.349 30.056C194.52 30.2267 194.605 30.5893 194.605 31.144C194.605 31.5707 194.53 31.9547 194.381 32.296C194.253 32.616 194.008 32.84 193.645 32.968C193.368 33.0533 193.005 33.128 192.557 33.192C192.109 33.2773 191.714 33.32 191.373 33.32Z" fill="#217860"/>
</svg>
