<svg width="70" height="70" viewBox="0 0 70 70" fill="none" xmlns="http://www.w3.org/2000/svg">
<rect width="70" height="70" rx="8" fill="#D7F4EC"/>
<path d="M45.542 24.8838V18.7083H39.3665L35.0003 13.9166L30.6342 18.7083H24.4587V24.8838L19.667 29.25L24.4587 33.6161V39.7916H28.292L24.4587 56.0833L35.0003 49.375L45.542 56.0833L41.7087 39.7916H45.542V33.6161L50.3337 29.25L45.542 24.8838Z" fill="#D7F4EC"/>
<path d="M28.2923 39.7916L24.459 56.0833L35.0007 49.375L45.5423 56.0833L41.709 39.7916" stroke="#217860" stroke-linecap="round" stroke-linejoin="round"/>
<path d="M45.542 33.6161L50.3337 29.25L45.542 24.8838V18.7083H39.3665L35.0003 13.9166L30.6342 18.7083H24.4587V24.8838L19.667 29.25L24.4587 33.6161V39.7916H30.6342L35.0003 44.5833L39.3665 39.7916H45.542V33.6161Z" stroke="#217860" stroke-linecap="round" stroke-linejoin="round"/>
<path d="M28.292 25.4166L35.0003 21.5833L41.7087 25.4166V33.0833L35.0003 36.9166L28.292 33.0833V25.4166Z" stroke="#217860" stroke-linecap="round" stroke-linejoin="round"/>
<path d="M35 26.375L32.125 29.25L35 32.125L37.875 29.25L35 26.375Z" stroke="#217860" stroke-linecap="round" stroke-linejoin="round"/>
</svg>
