<svg width="70" height="70" viewBox="0 0 70 70" fill="none" xmlns="http://www.w3.org/2000/svg">
<rect width="70" height="70" rx="8" fill="#D7F4EC"/>
<path d="M45.3768 31.9602C46.5 30.837 46.5 29.0315 46.5 25.4167C46.5 21.8018 46.5 19.9963 45.3768 18.8732M45.3768 31.9602C44.2537 33.0833 42.4482 33.0833 38.8333 33.0833H31.1667C27.5518 33.0833 25.7463 33.0833 24.6232 31.9602M45.3768 18.8732C44.2537 17.75 42.4482 17.75 38.8333 17.75H31.1667C27.5518 17.75 25.7463 17.75 24.6232 18.8732M24.6232 18.8732C23.5 19.9963 23.5 21.8018 23.5 25.4167C23.5 29.0315 23.5 30.837 24.6232 31.9602M36.9167 25.4167C36.9167 25.925 36.7147 26.4125 36.3553 26.772C35.9958 27.1314 35.5083 27.3333 35 27.3333C34.4917 27.3333 34.0042 27.1314 33.6447 26.772C33.2853 26.4125 33.0833 25.925 33.0833 25.4167C33.0833 24.9083 33.2853 24.4208 33.6447 24.0614C34.0042 23.7019 34.4917 23.5 35 23.5C35.5083 23.5 35.9958 23.7019 36.3553 24.0614C36.7147 24.4208 36.9167 24.9083 36.9167 25.4167Z" fill="white"/>
<path d="M45.3768 31.9602C46.5 30.837 46.5 29.0315 46.5 25.4167C46.5 21.8018 46.5 19.9963 45.3768 18.8732C44.2537 17.75 42.4482 17.75 38.8333 17.75H31.1667C27.5518 17.75 25.7463 17.75 24.6232 18.8732C23.5 19.9963 23.5 21.8018 23.5 25.4167C23.5 29.0315 23.5 30.837 24.6232 31.9602C25.7463 33.0833 27.5518 33.0833 31.1667 33.0833H38.8333C42.4482 33.0833 44.2537 33.0833 45.3768 31.9602ZM36.9167 25.4167C36.9167 25.925 36.7147 26.4125 36.3553 26.772C35.9958 27.1314 35.5083 27.3333 35 27.3333C34.4917 27.3333 34.0042 27.1314 33.6447 26.772C33.2853 26.4125 33.0833 25.925 33.0833 25.4167C33.0833 24.9083 33.2853 24.4208 33.6447 24.0614C34.0042 23.7019 34.4917 23.5 35 23.5C35.5083 23.5 35.9958 23.7019 36.3553 24.0614C36.7147 24.4208 36.9167 24.9083 36.9167 25.4167Z" stroke="#217860" stroke-width="1.5"/>
<path d="M46.4997 23.5C44.9747 23.5 43.5121 22.8942 42.4338 21.8159C41.3555 20.7375 40.7497 19.275 40.7497 17.75M46.4997 27.3333C44.9747 27.3333 43.5121 27.9391 42.4338 29.0175C41.3555 30.0958 40.7497 31.5583 40.7497 33.0833M23.4997 23.5C25.0247 23.5 26.4872 22.8942 27.5655 21.8159C28.6439 20.7375 29.2497 19.275 29.2497 17.75M23.4997 27.3333C25.0247 27.3333 26.4872 27.9391 27.5655 29.0175C28.6439 30.0958 29.2497 31.5583 29.2497 33.0833M21.583 51.077H25.9147C27.8505 51.077 29.8113 51.2802 31.6953 51.6673C35.0593 52.3563 38.52 52.4329 41.9112 51.8935C43.5748 51.6252 45.2078 51.2131 46.6875 50.5001C48.0215 49.8542 49.6564 48.9476 50.7547 47.9298C51.851 46.914 52.9933 45.2522 53.8022 43.9527C54.4998 42.8372 54.1625 41.4707 53.0623 40.6407C52.4438 40.1919 51.6991 39.9502 50.9348 39.9502C50.1706 39.9502 49.4259 40.1919 48.8073 40.6407L45.3439 43.257C44.0023 44.2728 42.536 45.2062 40.7899 45.4842C40.5791 45.5174 40.3587 45.5474 40.1287 45.5742M40.1287 45.5742L39.9178 45.5972M40.1287 45.5742C40.4354 45.4911 40.7166 45.3331 40.9471 45.1143C41.2364 44.8647 41.4726 44.5596 41.6419 44.2171C41.8112 43.8746 41.91 43.5016 41.9325 43.1202C41.955 42.7388 41.9008 42.3568 41.773 41.9968C41.6452 41.6367 41.4465 41.306 41.1886 41.0241C40.9388 40.7468 40.6479 40.5096 40.3261 40.3207C34.9652 37.1217 26.6219 39.5578 21.583 43.1324M40.1287 45.5742C40.0595 45.5897 39.9888 45.5974 39.9178 45.5972M39.9178 45.5972C38.7619 45.7131 37.5974 45.7157 36.441 45.6049" stroke="#217860" stroke-width="1.5" stroke-linecap="round"/>
<path d="M21.583 41.7084C21.583 40.1206 20.2958 38.8334 18.708 38.8334C17.1202 38.8334 15.833 40.1206 15.833 41.7084V51.2917C15.833 52.8795 17.1202 54.1667 18.708 54.1667C20.2958 54.1667 21.583 52.8795 21.583 51.2917V41.7084Z" stroke="#217860" stroke-width="1.5"/>
</svg>
