<svg width="212" height="174" viewBox="0 0 212 174" fill="none" xmlns="http://www.w3.org/2000/svg">
<rect x="0.833008" y="0.5" width="210" height="173" rx="15.5" fill="white"/>
<rect x="0.833008" y="0.5" width="210" height="173" rx="15.5" stroke="#AFE9D9"/>
<g clip-path="url(#clip0_222_1875)">
<path d="M121.771 82.0978H125.666M121.771 76.9022H125.666M131.333 78.0829L129.916 79.5M108.489 74.6484C108.489 74.1981 108.854 73.8329 109.305 73.8329H120.955C121.405 73.8329 121.771 74.1981 121.771 74.6484V94.9063H108.489V74.6484ZM136.38 74.9724C136.38 74.6704 136.26 74.3808 136.047 74.1671C135.833 73.9535 135.544 73.8332 135.242 73.8329H126.805C126.503 73.8329 126.213 73.953 126 74.1667C125.786 74.3804 125.666 74.6702 125.666 74.9724V83.3197C125.666 83.9479 126.176 84.4579 126.805 84.4579H135.242C135.544 84.4579 135.833 84.338 136.047 84.1245C136.26 83.9111 136.38 83.6216 136.38 83.3197V74.9724ZM130.761 46.2889C130.3 45.2138 129.533 44.2975 128.557 43.6537C127.58 43.0099 126.436 42.6669 125.266 42.6671H86.3999C85.2301 42.6669 84.086 43.0099 83.1093 43.6537C82.1326 44.2975 81.3663 45.2138 80.9054 46.2889L73.958 62.5H137.708L130.761 46.2889ZM86.0001 62.5H76.083V64.4457C76.083 65.4325 76.4749 66.3788 77.1725 67.0767C77.8701 67.7745 78.8163 68.1668 79.8031 68.1671H82.2787C83.2655 68.1671 84.2125 67.7753 84.9097 67.0767C85.2555 66.7314 85.5298 66.3212 85.7169 65.8698C85.904 65.4183 86.0002 64.9344 86.0001 64.4457V62.5Z" stroke="#34896B" stroke-width="2" stroke-miterlimit="2" stroke-linecap="round" stroke-linejoin="round"/>
<path fill-rule="evenodd" clip-rule="evenodd" d="M95.9158 62.5H86V64.4457C86 65.4325 86.3919 66.3788 87.0895 67.0767C87.7871 67.7745 88.7333 68.1668 89.7201 68.1671H92.1957C92.6844 68.1673 93.1683 68.0711 93.6198 67.8842C94.0713 67.6972 94.4816 67.4231 94.8271 67.0774C95.1725 66.7318 95.4465 66.3215 95.6333 65.8699C95.8202 65.4184 95.9161 64.9344 95.9158 64.4457V62.5Z" stroke="#27A87B" stroke-width="2" stroke-miterlimit="2" stroke-linecap="round" stroke-linejoin="round"/>
<path fill-rule="evenodd" clip-rule="evenodd" d="M105.833 62.5H95.916V64.4457C95.916 65.4325 96.3078 66.3795 97.0064 67.0767C97.3518 67.4225 97.7619 67.6968 98.2133 67.8839C98.6648 68.071 99.1487 68.1672 99.6374 68.1671H102.113C102.602 68.1673 103.086 68.0711 103.537 67.8842C103.989 67.6972 104.399 67.4231 104.744 67.0774C105.09 66.7318 105.364 66.3215 105.551 65.8699C105.737 65.4184 105.833 64.9344 105.833 64.4457V62.5Z" stroke="#27A87B" stroke-width="2" stroke-miterlimit="2" stroke-linecap="round" stroke-linejoin="round"/>
<path fill-rule="evenodd" clip-rule="evenodd" d="M115.75 62.5H105.833V64.4457C105.833 65.4325 106.225 66.3788 106.923 67.0767C107.62 67.7745 108.566 68.1668 109.553 68.1671H112.029C113.016 68.1671 113.962 67.7753 114.66 67.0767C115.005 66.7314 115.28 66.3212 115.467 65.8698C115.654 65.4183 115.75 64.9344 115.75 64.4457V62.5Z" stroke="#27A87B" stroke-width="2" stroke-miterlimit="2" stroke-linecap="round" stroke-linejoin="round"/>
<path fill-rule="evenodd" clip-rule="evenodd" d="M125.666 62.5H115.75V64.4457C115.75 65.4325 116.142 66.3788 116.84 67.0767C117.537 67.7745 118.483 68.1668 119.47 68.1671H121.946C122.434 68.1673 122.918 68.0711 123.37 67.8842C123.821 67.6972 124.232 67.4231 124.577 67.0774C124.923 66.7318 125.197 66.3215 125.383 65.8699C125.57 65.4184 125.666 64.9344 125.666 64.4457V62.5Z" stroke="#27A87B" stroke-width="2" stroke-miterlimit="2" stroke-linecap="round" stroke-linejoin="round"/>
<path d="M131.067 68.1671V73.8329M131.067 89.287V92.4851C131.067 93.1279 130.81 93.7428 130.353 94.197C129.893 94.6517 129.273 94.9066 128.626 94.9062H103M83.2549 95.0829H81.7116C81.0642 95.0829 80.4433 94.8257 79.9855 94.3679C79.5277 93.9101 79.2705 93.2892 79.2705 92.6418V68.1671M88.833 89.5937H91.6659M88.833 93.6671H91.6659M135.583 62.5H125.666V64.4457C125.666 65.4325 126.058 66.3795 126.756 67.0767C127.102 67.4225 127.512 67.6968 127.963 67.8839C128.415 68.071 128.899 68.1672 129.387 68.1671H131.863C132.352 68.1673 132.836 68.0711 133.287 67.8842C133.739 67.6972 134.149 67.4231 134.494 67.0774C134.84 66.7318 135.114 66.3215 135.301 65.8699C135.487 65.4184 135.583 64.9344 135.583 64.4457V62.5ZM82.458 100.219H98.0409L95.208 82.9531H85.2909L82.458 100.219Z" stroke="#34896B" stroke-width="2" stroke-miterlimit="2" stroke-linecap="round" stroke-linejoin="round"/>
</g>
<path d="M46.425 139.644C45.1983 139.644 44.1637 139.415 43.321 138.956C42.4783 138.487 41.8383 137.82 41.401 136.956C40.9743 136.092 40.761 135.063 40.761 133.868C40.761 132.972 40.8837 132.172 41.129 131.468C41.385 130.753 41.7477 130.145 42.217 129.644C42.697 129.132 43.2783 128.743 43.961 128.476C44.6543 128.209 45.4383 128.076 46.313 128.076C46.953 128.076 47.5823 128.161 48.201 128.332C48.8197 128.492 49.385 128.759 49.897 129.132C50.0463 129.239 50.1423 129.361 50.185 129.5C50.2277 129.639 50.2277 129.783 50.185 129.932C50.153 130.071 50.0837 130.193 49.977 130.3C49.881 130.407 49.7583 130.471 49.609 130.492C49.4703 130.513 49.3157 130.471 49.145 130.364C48.729 130.076 48.2917 129.868 47.833 129.74C47.3743 129.601 46.8677 129.532 46.313 129.532C45.481 129.532 44.777 129.703 44.201 130.044C43.6357 130.385 43.209 130.881 42.921 131.532C42.633 132.172 42.489 132.951 42.489 133.868C42.489 135.287 42.825 136.364 43.497 137.1C44.169 137.836 45.1663 138.204 46.489 138.204C46.969 138.204 47.4383 138.161 47.897 138.076C48.3663 137.98 48.8143 137.847 49.241 137.676L48.905 138.508V134.78H46.841C46.6277 134.78 46.457 134.727 46.329 134.62C46.2117 134.503 46.153 134.343 46.153 134.14C46.153 133.937 46.2117 133.788 46.329 133.692C46.457 133.585 46.6277 133.532 46.841 133.532H49.609C49.833 133.532 50.0037 133.591 50.121 133.708C50.2383 133.825 50.297 133.996 50.297 134.22V138.252C50.297 138.444 50.2597 138.609 50.185 138.748C50.121 138.876 50.009 138.972 49.849 139.036C49.3903 139.217 48.8517 139.367 48.233 139.484C47.6143 139.591 47.0117 139.644 46.425 139.644ZM53.4881 139.612C53.2215 139.612 53.0188 139.543 52.8801 139.404C52.7415 139.255 52.6721 139.052 52.6721 138.796V132.396C52.6721 132.129 52.7415 131.927 52.8801 131.788C53.0188 131.649 53.2108 131.58 53.4561 131.58C53.7121 131.58 53.9041 131.649 54.0321 131.788C54.1708 131.927 54.2401 132.129 54.2401 132.396V133.564H54.0801C54.2508 132.924 54.5655 132.439 55.0241 132.108C55.4828 131.777 56.0695 131.585 56.7841 131.532C56.9761 131.521 57.1255 131.569 57.2321 131.676C57.3495 131.783 57.4135 131.948 57.4241 132.172C57.4455 132.396 57.3975 132.577 57.2801 132.716C57.1628 132.844 56.9815 132.919 56.7361 132.94L56.4321 132.972C55.7388 133.036 55.2108 133.255 54.8481 133.628C54.4855 134.001 54.3041 134.513 54.3041 135.164V138.796C54.3041 139.052 54.2348 139.255 54.0961 139.404C53.9681 139.543 53.7655 139.612 53.4881 139.612ZM61.9235 139.644C61.1342 139.644 60.4515 139.479 59.8755 139.148C59.3102 138.817 58.8675 138.348 58.5475 137.74C58.2275 137.132 58.0675 136.417 58.0675 135.596C58.0675 134.967 58.1582 134.407 58.3395 133.916C58.5208 133.425 58.7768 133.004 59.1075 132.652C59.4488 132.289 59.8542 132.017 60.3235 131.836C60.8035 131.644 61.3368 131.548 61.9235 131.548C62.7022 131.548 63.3742 131.713 63.9395 132.044C64.5155 132.375 64.9635 132.844 65.2835 133.452C65.6035 134.049 65.7635 134.764 65.7635 135.596C65.7635 136.215 65.6728 136.775 65.4915 137.276C65.3102 137.777 65.0488 138.204 64.7075 138.556C64.3768 138.908 63.9715 139.18 63.4915 139.372C63.0222 139.553 62.4995 139.644 61.9235 139.644ZM61.9235 138.396C62.3608 138.396 62.7448 138.289 63.0755 138.076C63.4062 137.863 63.6622 137.548 63.8435 137.132C64.0355 136.716 64.1315 136.204 64.1315 135.596C64.1315 134.679 63.9288 133.985 63.5235 133.516C63.1182 133.047 62.5848 132.812 61.9235 132.812C61.4755 132.812 61.0862 132.919 60.7555 133.132C60.4248 133.335 60.1635 133.644 59.9715 134.06C59.7902 134.476 59.6995 134.988 59.6995 135.596C59.6995 136.503 59.9022 137.196 60.3075 137.676C60.7128 138.156 61.2515 138.396 61.9235 138.396ZM71.0184 139.644C70.2184 139.644 69.525 139.479 68.9384 139.148C68.3624 138.807 67.9144 138.332 67.5944 137.724C67.2744 137.105 67.1144 136.38 67.1144 135.548C67.1144 134.929 67.205 134.375 67.3864 133.884C67.5677 133.383 67.8237 132.961 68.1544 132.62C68.4957 132.279 68.9064 132.017 69.3864 131.836C69.877 131.644 70.421 131.548 71.0184 131.548C71.3917 131.548 71.781 131.607 72.1864 131.724C72.6024 131.831 72.9864 132.012 73.3384 132.268C73.477 132.353 73.5624 132.46 73.5944 132.588C73.637 132.705 73.6424 132.828 73.6104 132.956C73.589 133.084 73.5304 133.196 73.4344 133.292C73.349 133.377 73.2424 133.431 73.1144 133.452C72.9864 133.463 72.8477 133.425 72.6984 133.34C72.4424 133.159 72.181 133.031 71.9144 132.956C71.6477 132.871 71.3917 132.828 71.1464 132.828C70.7624 132.828 70.421 132.892 70.1224 133.02C69.8344 133.137 69.589 133.313 69.3864 133.548C69.1837 133.772 69.029 134.055 68.9224 134.396C68.8264 134.737 68.7784 135.127 68.7784 135.564C68.7784 136.439 68.981 137.127 69.3864 137.628C69.8024 138.119 70.389 138.364 71.1464 138.364C71.3917 138.364 71.6477 138.327 71.9144 138.252C72.181 138.177 72.4424 138.049 72.6984 137.868C72.8477 137.783 72.9864 137.751 73.1144 137.772C73.2424 137.793 73.3437 137.852 73.4184 137.948C73.5037 138.033 73.557 138.14 73.5784 138.268C73.6104 138.385 73.605 138.508 73.5624 138.636C73.5197 138.764 73.429 138.871 73.2904 138.956C72.949 139.201 72.5757 139.377 72.1704 139.484C71.7757 139.591 71.3917 139.644 71.0184 139.644ZM78.5549 139.644C77.7015 139.644 76.9655 139.484 76.3469 139.164C75.7389 138.833 75.2642 138.369 74.9229 137.772C74.5922 137.164 74.4269 136.444 74.4269 135.612C74.4269 134.801 74.5922 134.092 74.9229 133.484C75.2535 132.876 75.7069 132.401 76.2829 132.06C76.8589 131.719 77.5149 131.548 78.2509 131.548C78.7949 131.548 79.2802 131.639 79.7069 131.82C80.1335 131.991 80.4962 132.247 80.7949 132.588C81.1042 132.919 81.3335 133.324 81.4829 133.804C81.6429 134.284 81.7229 134.823 81.7229 135.42C81.7229 135.601 81.6695 135.74 81.5629 135.836C81.4562 135.921 81.2962 135.964 81.0829 135.964H75.7069V134.972H80.6349L80.3629 135.196C80.3629 134.663 80.2829 134.209 80.1229 133.836C79.9735 133.463 79.7442 133.18 79.4349 132.988C79.1362 132.785 78.7629 132.684 78.3149 132.684C77.8135 132.684 77.3869 132.801 77.0349 133.036C76.6935 133.271 76.4322 133.596 76.2509 134.012C76.0695 134.428 75.9789 134.913 75.9789 135.468V135.564C75.9789 136.503 76.1975 137.212 76.6349 137.692C77.0829 138.161 77.7282 138.396 78.5709 138.396C78.8909 138.396 79.2269 138.353 79.5789 138.268C79.9415 138.183 80.2829 138.039 80.6029 137.836C80.7842 137.729 80.9442 137.681 81.0829 137.692C81.2322 137.703 81.3495 137.751 81.4349 137.836C81.5309 137.921 81.5895 138.028 81.6109 138.156C81.6322 138.284 81.6109 138.417 81.5469 138.556C81.4829 138.684 81.3709 138.801 81.2109 138.908C80.8482 139.153 80.4269 139.34 79.9469 139.468C79.4669 139.585 79.0029 139.644 78.5549 139.644ZM84.3006 139.612C84.034 139.612 83.8313 139.543 83.6926 139.404C83.554 139.255 83.4846 139.052 83.4846 138.796V132.396C83.4846 132.129 83.554 131.927 83.6926 131.788C83.8313 131.649 84.0233 131.58 84.2686 131.58C84.5246 131.58 84.7166 131.649 84.8446 131.788C84.9833 131.927 85.0526 132.129 85.0526 132.396V133.564H84.8926C85.0633 132.924 85.378 132.439 85.8366 132.108C86.2953 131.777 86.882 131.585 87.5966 131.532C87.7886 131.521 87.938 131.569 88.0446 131.676C88.162 131.783 88.226 131.948 88.2366 132.172C88.258 132.396 88.21 132.577 88.0926 132.716C87.9753 132.844 87.794 132.919 87.5486 132.94L87.2446 132.972C86.5513 133.036 86.0233 133.255 85.6606 133.628C85.298 134.001 85.1166 134.513 85.1166 135.164V138.796C85.1166 139.052 85.0473 139.255 84.9086 139.404C84.7806 139.543 84.578 139.612 84.3006 139.612ZM91.7778 142.492C91.5858 142.492 91.4258 142.439 91.2978 142.332C91.1804 142.236 91.1111 142.103 91.0898 141.932C91.0791 141.772 91.1111 141.596 91.1858 141.404L92.2738 138.956V139.644L89.2818 132.684C89.2071 132.492 89.1804 132.311 89.2018 132.14C89.2231 131.969 89.3031 131.836 89.4418 131.74C89.5804 131.633 89.7671 131.58 90.0018 131.58C90.2044 131.58 90.3644 131.628 90.4818 131.724C90.5991 131.82 90.7058 131.985 90.8018 132.22L93.2178 138.188H92.7698L95.2178 132.22C95.3138 131.975 95.4258 131.809 95.5538 131.724C95.6818 131.628 95.8578 131.58 96.0818 131.58C96.2738 131.58 96.4231 131.633 96.5298 131.74C96.6471 131.836 96.7164 131.969 96.7378 132.14C96.7698 132.3 96.7431 132.476 96.6578 132.668L92.6578 141.868C92.5511 142.113 92.4284 142.279 92.2898 142.364C92.1618 142.449 91.9911 142.492 91.7778 142.492ZM106.405 139.644C105.914 139.644 105.434 139.607 104.965 139.532C104.496 139.457 104.053 139.345 103.637 139.196C103.221 139.036 102.848 138.844 102.517 138.62C102.357 138.503 102.245 138.369 102.181 138.22C102.128 138.071 102.112 137.927 102.133 137.788C102.165 137.639 102.229 137.511 102.325 137.404C102.421 137.297 102.538 137.233 102.677 137.212C102.816 137.18 102.97 137.223 103.141 137.34C103.621 137.649 104.128 137.879 104.661 138.028C105.194 138.167 105.776 138.236 106.405 138.236C107.312 138.236 107.978 138.076 108.405 137.756C108.842 137.425 109.061 136.999 109.061 136.476C109.061 136.049 108.906 135.713 108.597 135.468C108.288 135.212 107.77 135.009 107.045 134.86L105.333 134.508C104.32 134.295 103.562 133.943 103.061 133.452C102.57 132.961 102.325 132.3 102.325 131.468C102.325 130.967 102.426 130.508 102.629 130.092C102.842 129.676 103.136 129.319 103.509 129.02C103.882 128.711 104.33 128.476 104.853 128.316C105.376 128.156 105.946 128.076 106.565 128.076C107.226 128.076 107.845 128.161 108.421 128.332C109.008 128.503 109.53 128.764 109.989 129.116C110.128 129.212 110.218 129.335 110.261 129.484C110.314 129.623 110.325 129.761 110.293 129.9C110.272 130.039 110.213 130.156 110.117 130.252C110.021 130.348 109.898 130.407 109.749 130.428C109.6 130.439 109.434 130.385 109.253 130.268C108.837 129.991 108.41 129.793 107.973 129.676C107.546 129.548 107.072 129.484 106.549 129.484C106.026 129.484 105.568 129.564 105.173 129.724C104.789 129.884 104.49 130.108 104.277 130.396C104.074 130.684 103.973 131.025 103.973 131.42C103.973 131.868 104.117 132.225 104.405 132.492C104.693 132.759 105.173 132.961 105.845 133.1L107.541 133.452C108.608 133.676 109.402 134.023 109.925 134.492C110.448 134.961 110.709 135.585 110.709 136.364C110.709 136.865 110.608 137.319 110.405 137.724C110.202 138.119 109.914 138.46 109.541 138.748C109.168 139.036 108.714 139.26 108.181 139.42C107.658 139.569 107.066 139.644 106.405 139.644ZM113.222 139.612C112.966 139.612 112.769 139.543 112.63 139.404C112.491 139.255 112.422 139.052 112.422 138.796V128.924C112.422 128.657 112.491 128.455 112.63 128.316C112.769 128.177 112.966 128.108 113.222 128.108C113.478 128.108 113.675 128.177 113.814 128.316C113.963 128.455 114.038 128.657 114.038 128.924V133.356H113.814C114.049 132.759 114.417 132.311 114.918 132.012C115.419 131.703 115.995 131.548 116.646 131.548C117.265 131.548 117.777 131.665 118.182 131.9C118.598 132.124 118.907 132.471 119.11 132.94C119.313 133.399 119.414 133.98 119.414 134.684V138.796C119.414 139.052 119.345 139.255 119.206 139.404C119.067 139.543 118.87 139.612 118.614 139.612C118.347 139.612 118.145 139.543 118.006 139.404C117.867 139.255 117.798 139.052 117.798 138.796V134.78C117.798 134.108 117.665 133.617 117.398 133.308C117.142 132.999 116.737 132.844 116.182 132.844C115.531 132.844 115.009 133.047 114.614 133.452C114.23 133.857 114.038 134.401 114.038 135.084V138.796C114.038 139.34 113.766 139.612 113.222 139.612ZM125.033 139.644C124.244 139.644 123.561 139.479 122.985 139.148C122.42 138.817 121.977 138.348 121.657 137.74C121.337 137.132 121.177 136.417 121.177 135.596C121.177 134.967 121.268 134.407 121.449 133.916C121.63 133.425 121.886 133.004 122.217 132.652C122.558 132.289 122.964 132.017 123.433 131.836C123.913 131.644 124.446 131.548 125.033 131.548C125.812 131.548 126.484 131.713 127.049 132.044C127.625 132.375 128.073 132.844 128.393 133.452C128.713 134.049 128.873 134.764 128.873 135.596C128.873 136.215 128.782 136.775 128.601 137.276C128.42 137.777 128.158 138.204 127.817 138.556C127.486 138.908 127.081 139.18 126.601 139.372C126.132 139.553 125.609 139.644 125.033 139.644ZM125.033 138.396C125.47 138.396 125.854 138.289 126.185 138.076C126.516 137.863 126.772 137.548 126.953 137.132C127.145 136.716 127.241 136.204 127.241 135.596C127.241 134.679 127.038 133.985 126.633 133.516C126.228 133.047 125.694 132.812 125.033 132.812C124.585 132.812 124.196 132.919 123.865 133.132C123.534 133.335 123.273 133.644 123.081 134.06C122.9 134.476 122.809 134.988 122.809 135.596C122.809 136.503 123.012 137.196 123.417 137.676C123.822 138.156 124.361 138.396 125.033 138.396ZM131.488 142.492C131.232 142.492 131.034 142.423 130.896 142.284C130.757 142.145 130.688 141.943 130.688 141.676V132.396C130.688 132.129 130.757 131.927 130.896 131.788C131.034 131.649 131.226 131.58 131.472 131.58C131.728 131.58 131.925 131.649 132.064 131.788C132.202 131.927 132.272 132.129 132.272 132.396V133.788L132.096 133.452C132.266 132.876 132.602 132.417 133.104 132.076C133.605 131.724 134.197 131.548 134.88 131.548C135.573 131.548 136.176 131.713 136.688 132.044C137.21 132.375 137.61 132.839 137.888 133.436C138.176 134.033 138.32 134.753 138.32 135.596C138.32 136.417 138.176 137.137 137.888 137.756C137.61 138.364 137.216 138.833 136.704 139.164C136.192 139.484 135.584 139.644 134.88 139.644C134.208 139.644 133.621 139.473 133.12 139.132C132.618 138.791 132.282 138.337 132.112 137.772H132.304V141.676C132.304 141.943 132.229 142.145 132.08 142.284C131.941 142.423 131.744 142.492 131.488 142.492ZM134.48 138.396C134.928 138.396 135.317 138.289 135.648 138.076C135.978 137.863 136.234 137.548 136.416 137.132C136.597 136.716 136.688 136.204 136.688 135.596C136.688 134.679 136.485 133.985 136.08 133.516C135.685 133.047 135.152 132.812 134.48 132.812C134.042 132.812 133.653 132.919 133.312 133.132C132.981 133.335 132.725 133.644 132.544 134.06C132.362 134.476 132.272 134.988 132.272 135.596C132.272 136.503 132.474 137.196 132.88 137.676C133.285 138.156 133.818 138.396 134.48 138.396ZM140.941 142.492C140.685 142.492 140.488 142.423 140.349 142.284C140.21 142.145 140.141 141.943 140.141 141.676V132.396C140.141 132.129 140.21 131.927 140.349 131.788C140.488 131.649 140.68 131.58 140.925 131.58C141.181 131.58 141.378 131.649 141.517 131.788C141.656 131.927 141.725 132.129 141.725 132.396V133.788L141.549 133.452C141.72 132.876 142.056 132.417 142.557 132.076C143.058 131.724 143.65 131.548 144.333 131.548C145.026 131.548 145.629 131.713 146.141 132.044C146.664 132.375 147.064 132.839 147.341 133.436C147.629 134.033 147.773 134.753 147.773 135.596C147.773 136.417 147.629 137.137 147.341 137.756C147.064 138.364 146.669 138.833 146.157 139.164C145.645 139.484 145.037 139.644 144.333 139.644C143.661 139.644 143.074 139.473 142.573 139.132C142.072 138.791 141.736 138.337 141.565 137.772H141.757V141.676C141.757 141.943 141.682 142.145 141.533 142.284C141.394 142.423 141.197 142.492 140.941 142.492ZM143.933 138.396C144.381 138.396 144.77 138.289 145.101 138.076C145.432 137.863 145.688 137.548 145.869 137.132C146.05 136.716 146.141 136.204 146.141 135.596C146.141 134.679 145.938 133.985 145.533 133.516C145.138 133.047 144.605 132.812 143.933 132.812C143.496 132.812 143.106 132.919 142.765 133.132C142.434 133.335 142.178 133.644 141.997 134.06C141.816 134.476 141.725 134.988 141.725 135.596C141.725 136.503 141.928 137.196 142.333 137.676C142.738 138.156 143.272 138.396 143.933 138.396ZM150.394 139.596C150.138 139.596 149.941 139.521 149.802 139.372C149.663 139.212 149.594 138.993 149.594 138.716V132.476C149.594 132.199 149.663 131.985 149.802 131.836C149.941 131.687 150.138 131.612 150.394 131.612C150.65 131.612 150.847 131.687 150.986 131.836C151.135 131.985 151.21 132.199 151.21 132.476V138.716C151.21 138.993 151.141 139.212 151.002 139.372C150.863 139.521 150.661 139.596 150.394 139.596ZM150.394 129.948C150.074 129.948 149.823 129.868 149.642 129.708C149.471 129.548 149.386 129.324 149.386 129.036C149.386 128.737 149.471 128.513 149.642 128.364C149.823 128.204 150.074 128.124 150.394 128.124C150.714 128.124 150.959 128.204 151.13 128.364C151.311 128.513 151.402 128.737 151.402 129.036C151.402 129.324 151.311 129.548 151.13 129.708C150.959 129.868 150.714 129.948 150.394 129.948ZM154.285 139.612C154.029 139.612 153.831 139.543 153.693 139.404C153.554 139.255 153.485 139.052 153.485 138.796V132.396C153.485 132.129 153.554 131.927 153.693 131.788C153.831 131.649 154.023 131.58 154.269 131.58C154.525 131.58 154.717 131.649 154.845 131.788C154.983 131.927 155.053 132.129 155.053 132.396V133.644L154.877 133.356C155.111 132.759 155.479 132.311 155.981 132.012C156.482 131.703 157.058 131.548 157.709 131.548C158.327 131.548 158.839 131.665 159.245 131.9C159.661 132.124 159.97 132.471 160.173 132.94C160.375 133.399 160.477 133.98 160.477 134.684V138.796C160.477 139.052 160.407 139.255 160.269 139.404C160.13 139.543 159.933 139.612 159.677 139.612C159.41 139.612 159.207 139.543 159.069 139.404C158.93 139.255 158.861 139.052 158.861 138.796V134.78C158.861 134.108 158.727 133.617 158.461 133.308C158.205 132.999 157.799 132.844 157.245 132.844C156.594 132.844 156.071 133.047 155.677 133.452C155.293 133.857 155.101 134.401 155.101 135.084V138.796C155.101 139.34 154.829 139.612 154.285 139.612ZM166.239 142.524C165.663 142.524 165.103 142.465 164.559 142.348C164.026 142.231 163.541 142.039 163.103 141.772C162.943 141.687 162.837 141.58 162.783 141.452C162.73 141.335 162.714 141.212 162.735 141.084C162.767 140.956 162.826 140.844 162.911 140.748C162.997 140.652 163.098 140.588 163.215 140.556C163.343 140.524 163.477 140.545 163.615 140.62C164.085 140.876 164.527 141.047 164.943 141.132C165.37 141.228 165.765 141.276 166.127 141.276C166.874 141.276 167.434 141.084 167.807 140.7C168.181 140.327 168.367 139.772 168.367 139.036V137.404H168.511C168.351 137.991 168.015 138.455 167.503 138.796C166.991 139.137 166.399 139.308 165.727 139.308C165.023 139.308 164.41 139.148 163.887 138.828C163.365 138.497 162.959 138.044 162.671 137.468C162.383 136.881 162.239 136.199 162.239 135.42C162.239 134.833 162.319 134.305 162.479 133.836C162.65 133.367 162.885 132.961 163.183 132.62C163.493 132.279 163.861 132.017 164.287 131.836C164.725 131.644 165.205 131.548 165.727 131.548C166.41 131.548 167.002 131.719 167.503 132.06C168.015 132.401 168.346 132.865 168.495 133.452L168.335 133.724V132.396C168.335 132.129 168.405 131.927 168.543 131.788C168.693 131.649 168.89 131.58 169.135 131.58C169.391 131.58 169.589 131.649 169.727 131.788C169.866 131.927 169.935 132.129 169.935 132.396V138.844C169.935 140.06 169.621 140.977 168.991 141.596C168.362 142.215 167.445 142.524 166.239 142.524ZM166.111 138.044C166.581 138.044 166.981 137.937 167.311 137.724C167.642 137.511 167.898 137.207 168.079 136.812C168.261 136.417 168.351 135.953 168.351 135.42C168.351 134.62 168.149 133.985 167.743 133.516C167.349 133.047 166.805 132.812 166.111 132.812C165.653 132.812 165.258 132.919 164.927 133.132C164.597 133.345 164.335 133.649 164.143 134.044C163.962 134.428 163.871 134.887 163.871 135.42C163.871 136.231 164.074 136.871 164.479 137.34C164.885 137.809 165.429 138.044 166.111 138.044Z" fill="#5B5959"/>
<defs>
<clipPath id="clip0_222_1875">
<rect width="85" height="85" fill="white" transform="translate(63.333 28.5)"/>
</clipPath>
</defs>
</svg>
