<svg width="196" height="44" viewBox="0 0 196 44" fill="none" xmlns="http://www.w3.org/2000/svg">
<path d="M26.4998 22.7627L16.4997 32.6667L6.49975 22.7627C5.84016 22.1208 5.32061 21.3493 4.97381 20.4968C4.62702 19.6443 4.4605 18.7293 4.48473 17.8092C4.50897 16.8892 4.72343 15.9842 5.11463 15.1511C5.50582 14.318 6.06526 13.575 6.75773 12.9688C7.4502 12.3625 8.26069 11.9062 9.13817 11.6286C10.0156 11.351 10.9411 11.2581 11.8562 11.3557C12.7714 11.4534 13.6564 11.7394 14.4556 12.1959C15.2548 12.6523 15.9507 13.2693 16.4997 14.008C17.0511 13.2747 17.7479 12.6631 18.5466 12.2115C19.3452 11.7598 20.2284 11.4779 21.141 11.3834C22.0536 11.2888 22.9759 11.3836 23.8501 11.6618C24.7244 11.9401 25.5318 12.3958 26.2218 13.0005C26.9119 13.6051 27.4697 14.3457 27.8603 15.1758C28.251 16.006 28.4661 16.9078 28.4922 17.8249C28.5183 18.742 28.3548 19.6546 28.0119 20.5057C27.6691 21.3567 27.1543 22.1278 26.4998 22.7707" stroke="white" stroke-width="2" stroke-linecap="round" stroke-linejoin="round"/>
<path d="M16.4998 14L12.1091 18.3907C11.8592 18.6407 11.7188 18.9798 11.7188 19.3333C11.7188 19.6869 11.8592 20.026 12.1091 20.276L12.8331 21C13.7531 21.92 15.2465 21.92 16.1665 21L17.4998 19.6667C17.8936 19.2724 18.3612 18.9596 18.876 18.7462C19.3908 18.5328 19.9425 18.4229 20.4998 18.4229C21.057 18.4229 21.6088 18.5328 22.1236 18.7462C22.6384 18.9596 23.106 19.2724 23.4998 19.6667L26.4998 22.6667M17.1665 26.6667L19.8331 29.3333M20.4998 23.3333L23.1665 26" stroke="white" stroke-width="2" stroke-linecap="round" stroke-linejoin="round"/>
<path d="M45.14 33C44.436 33 43.892 32.8187 43.508 32.456C43.1453 32.072 42.964 31.528 42.964 30.824V12.616C42.964 11.912 43.1453 11.3787 43.508 11.016C43.892 10.632 44.436 10.44 45.14 10.44H56.564C57.0973 10.44 57.5027 10.5787 57.78 10.856C58.0787 11.1333 58.228 11.528 58.228 12.04C58.228 12.5733 58.0787 12.9893 57.78 13.288C57.5027 13.5653 57.0973 13.704 56.564 13.704H46.9V19.912H55.86C56.4147 19.912 56.8307 20.0507 57.108 20.328C57.3853 20.6053 57.524 21.0107 57.524 21.544C57.524 22.0773 57.3853 22.4827 57.108 22.76C56.8307 23.0373 56.4147 23.176 55.86 23.176H46.9V29.736H56.564C57.0973 29.736 57.5027 29.8747 57.78 30.152C58.0787 30.4293 58.228 30.8347 58.228 31.368C58.228 31.9013 58.0787 32.3067 57.78 32.584C57.5027 32.8613 57.0973 33 56.564 33H45.14ZM67.0178 33.32C65.2471 33.32 63.9138 32.8187 63.0178 31.816C62.1218 30.792 61.6738 29.2987 61.6738 27.336V12.2C61.6738 11.5387 61.8444 11.0373 62.1858 10.696C62.5271 10.3547 63.0178 10.184 63.6578 10.184C64.2978 10.184 64.7884 10.3547 65.1298 10.696C65.4924 11.0373 65.6738 11.5387 65.6738 12.2V27.144C65.6738 28.1253 65.8764 28.8507 66.2818 29.32C66.7084 29.7893 67.3058 30.024 68.0738 30.024C68.2444 30.024 68.4044 30.024 68.5538 30.024C68.7031 30.0027 68.8524 29.9813 69.0017 29.96C69.3004 29.9173 69.5031 30.0027 69.6098 30.216C69.7164 30.408 69.7698 30.8133 69.7698 31.432C69.7698 31.9653 69.6631 32.3813 69.4498 32.68C69.2364 32.9787 68.8844 33.16 68.3938 33.224C68.1804 33.2453 67.9564 33.2667 67.7218 33.288C67.4871 33.3093 67.2524 33.32 67.0178 33.32ZM77.7523 33.32C76.3869 33.32 75.1816 32.9893 74.1363 32.328C73.1123 31.6667 72.3123 30.728 71.7363 29.512C71.1603 28.2747 70.8723 26.824 70.8723 25.16C70.8723 23.4747 71.1603 22.0347 71.7363 20.84C72.3123 19.624 73.1123 18.6853 74.1363 18.024C75.1816 17.3627 76.3869 17.032 77.7523 17.032C79.0536 17.032 80.1843 17.352 81.1443 17.992C82.1256 18.632 82.7869 19.4747 83.1283 20.52H82.7763V12.2C82.7763 11.5387 82.9469 11.0373 83.2883 10.696C83.6296 10.3547 84.1203 10.184 84.7603 10.184C85.4003 10.184 85.8909 10.3547 86.2323 10.696C86.5949 11.0373 86.7763 11.5387 86.7763 12.2V31.208C86.7763 31.8693 86.6056 32.3813 86.2643 32.744C85.9229 33.0853 85.4323 33.256 84.7923 33.256C84.1523 33.256 83.6616 33.0853 83.3203 32.744C82.9789 32.3813 82.8083 31.8693 82.8083 31.208V28.712L83.1603 29.672C82.8403 30.7813 82.1896 31.6667 81.2083 32.328C80.2269 32.9893 79.0749 33.32 77.7523 33.32ZM78.8723 30.28C79.6616 30.28 80.3549 30.088 80.9523 29.704C81.5496 29.32 82.0083 28.7547 82.3283 28.008C82.6696 27.24 82.8403 26.2907 82.8403 25.16C82.8403 23.4533 82.4776 22.184 81.7523 21.352C81.0269 20.4987 80.0669 20.072 78.8723 20.072C78.0829 20.072 77.3896 20.264 76.7923 20.648C76.1949 21.0107 75.7256 21.576 75.3843 22.344C75.0643 23.0907 74.9043 24.0293 74.9043 25.16C74.9043 26.8453 75.2669 28.1253 75.9923 29C76.7176 29.8533 77.6776 30.28 78.8723 30.28ZM98.6358 33.32C96.8651 33.32 95.3398 32.9893 94.0598 32.328C92.7798 31.6667 91.7878 30.728 91.0838 29.512C90.4011 28.296 90.0598 26.856 90.0598 25.192C90.0598 23.5707 90.3904 22.152 91.0518 20.936C91.7344 19.72 92.6624 18.7707 93.8358 18.088C95.0304 17.384 96.3851 17.032 97.8998 17.032C99.0091 17.032 100.001 17.2133 100.876 17.576C101.772 17.9387 102.529 18.4613 103.148 19.144C103.788 19.8267 104.268 20.6587 104.588 21.64C104.929 22.6 105.1 23.688 105.1 24.904C105.1 25.288 104.961 25.5867 104.684 25.8C104.428 25.992 104.054 26.088 103.564 26.088H93.2918V23.784H102.284L101.772 24.264C101.772 23.2827 101.622 22.4613 101.324 21.8C101.046 21.1387 100.63 20.6373 100.076 20.296C99.5424 19.9333 98.8704 19.752 98.0598 19.752C97.1638 19.752 96.3958 19.9653 95.7558 20.392C95.1371 20.7973 94.6571 21.384 94.3158 22.152C93.9958 22.8987 93.8358 23.7947 93.8358 24.84V25.064C93.8358 26.8133 94.2411 28.1253 95.0518 29C95.8838 29.8533 97.0998 30.28 98.6998 30.28C99.2544 30.28 99.8731 30.216 100.556 30.088C101.26 29.9387 101.921 29.6933 102.54 29.352C102.988 29.096 103.382 28.9893 103.724 29.032C104.065 29.0533 104.332 29.1707 104.524 29.384C104.737 29.5973 104.865 29.864 104.908 30.184C104.95 30.4827 104.886 30.792 104.716 31.112C104.566 31.432 104.3 31.7093 103.916 31.944C103.169 32.4133 102.305 32.7653 101.324 33C100.364 33.2133 99.4678 33.32 98.6358 33.32ZM110.316 33.256C109.654 33.256 109.142 33.0853 108.78 32.744C108.438 32.3813 108.268 31.8693 108.268 31.208V19.112C108.268 18.4507 108.438 17.9493 108.78 17.608C109.121 17.2667 109.601 17.096 110.22 17.096C110.838 17.096 111.318 17.2667 111.66 17.608C112.001 17.9493 112.172 18.4507 112.172 19.112V21.128H111.852C112.15 19.848 112.737 18.8773 113.612 18.216C114.486 17.5547 115.649 17.16 117.1 17.032C117.548 16.9893 117.9 17.1067 118.156 17.384C118.433 17.64 118.593 18.0453 118.636 18.6C118.678 19.1333 118.55 19.5707 118.252 19.912C117.974 20.232 117.548 20.424 116.972 20.488L116.268 20.552C114.966 20.68 113.985 21.0853 113.324 21.768C112.662 22.4293 112.332 23.368 112.332 24.584V31.208C112.332 31.8693 112.161 32.3813 111.82 32.744C111.478 33.0853 110.977 33.256 110.316 33.256ZM128.671 33.256C128.009 33.256 127.497 33.0747 127.135 32.712C126.793 32.328 126.623 31.8053 126.623 31.144V13.864H120.383C119.828 13.864 119.391 13.7147 119.071 13.416C118.772 13.096 118.623 12.6693 118.623 12.136C118.623 11.5813 118.772 11.1653 119.071 10.888C119.391 10.5893 119.828 10.44 120.383 10.44H136.959C137.513 10.44 137.94 10.5893 138.239 10.888C138.559 11.1653 138.719 11.5813 138.719 12.136C138.719 12.6693 138.559 13.096 138.239 13.416C137.94 13.7147 137.513 13.864 136.959 13.864H130.719V31.144C130.719 31.8053 130.548 32.328 130.207 32.712C129.865 33.0747 129.353 33.256 128.671 33.256ZM140.222 33.256C139.56 33.256 139.048 33.0853 138.686 32.744C138.344 32.3813 138.174 31.8693 138.174 31.208V19.112C138.174 18.4507 138.344 17.9493 138.686 17.608C139.027 17.2667 139.507 17.096 140.126 17.096C140.744 17.096 141.224 17.2667 141.566 17.608C141.907 17.9493 142.078 18.4507 142.078 19.112V21.128H141.758C142.056 19.848 142.643 18.8773 143.518 18.216C144.392 17.5547 145.555 17.16 147.006 17.032C147.454 16.9893 147.806 17.1067 148.062 17.384C148.339 17.64 148.499 18.0453 148.542 18.6C148.584 19.1333 148.456 19.5707 148.158 19.912C147.88 20.232 147.454 20.424 146.878 20.488L146.174 20.552C144.872 20.68 143.891 21.0853 143.23 21.768C142.568 22.4293 142.238 23.368 142.238 24.584V31.208C142.238 31.8693 142.067 32.3813 141.726 32.744C141.384 33.0853 140.883 33.256 140.222 33.256ZM156.369 33.32C155.068 33.32 153.99 33.0853 153.137 32.616C152.284 32.1253 151.644 31.4 151.217 30.44C150.812 29.48 150.609 28.2853 150.609 26.856V19.112C150.609 18.4293 150.78 17.928 151.121 17.608C151.462 17.2667 151.953 17.096 152.593 17.096C153.233 17.096 153.724 17.2667 154.065 17.608C154.428 17.928 154.609 18.4293 154.609 19.112V26.92C154.609 28.0293 154.833 28.8507 155.281 29.384C155.729 29.9173 156.444 30.184 157.425 30.184C158.492 30.184 159.366 29.8213 160.049 29.096C160.732 28.3493 161.073 27.368 161.073 26.152V19.112C161.073 18.4293 161.244 17.928 161.585 17.608C161.926 17.2667 162.417 17.096 163.057 17.096C163.697 17.096 164.188 17.2667 164.529 17.608C164.892 17.928 165.073 18.4293 165.073 19.112V31.208C165.073 32.5733 164.422 33.256 163.121 33.256C162.502 33.256 162.022 33.0853 161.681 32.744C161.34 32.3813 161.169 31.8693 161.169 31.208V28.776L161.617 29.736C161.169 30.888 160.486 31.7733 159.569 32.392C158.673 33.0107 157.606 33.32 156.369 33.32ZM174.964 33.32C174.047 33.32 173.076 33.224 172.052 33.032C171.028 32.84 170.111 32.5093 169.3 32.04C168.959 31.8267 168.714 31.5813 168.564 31.304C168.436 31.0053 168.383 30.7173 168.404 30.44C168.447 30.1413 168.554 29.8853 168.724 29.672C168.916 29.4587 169.151 29.32 169.428 29.256C169.727 29.192 170.047 29.2453 170.388 29.416C171.242 29.8213 172.042 30.1093 172.788 30.28C173.535 30.4293 174.271 30.504 174.996 30.504C176.02 30.504 176.778 30.3333 177.268 29.992C177.78 29.6293 178.036 29.16 178.036 28.584C178.036 28.0933 177.866 27.72 177.524 27.464C177.204 27.1867 176.714 26.984 176.052 26.856L172.852 26.248C171.53 25.992 170.516 25.512 169.812 24.808C169.13 24.0827 168.788 23.1547 168.788 22.024C168.788 21 169.066 20.1147 169.62 19.368C170.196 18.6213 170.986 18.0453 171.988 17.64C172.991 17.2347 174.143 17.032 175.444 17.032C176.383 17.032 177.258 17.1387 178.068 17.352C178.9 17.544 179.7 17.8533 180.468 18.28C180.788 18.4507 181.002 18.6747 181.108 18.952C181.236 19.2293 181.268 19.5173 181.204 19.816C181.14 20.0933 181.012 20.3493 180.82 20.584C180.628 20.7973 180.383 20.936 180.084 21C179.807 21.0427 179.487 20.9787 179.124 20.808C178.463 20.4667 177.823 20.2213 177.204 20.072C176.607 19.9227 176.031 19.848 175.476 19.848C174.431 19.848 173.652 20.0293 173.14 20.392C172.65 20.7547 172.404 21.2347 172.404 21.832C172.404 22.28 172.554 22.6533 172.852 22.952C173.151 23.2507 173.61 23.4533 174.228 23.56L177.428 24.168C178.815 24.424 179.86 24.8933 180.564 25.576C181.29 26.2587 181.652 27.176 181.652 28.328C181.652 29.8853 181.044 31.112 179.828 32.008C178.612 32.8827 176.991 33.32 174.964 33.32ZM191.873 33.32C190.486 33.32 189.324 33.0853 188.385 32.616C187.468 32.1467 186.785 31.464 186.337 30.568C185.889 29.6507 185.665 28.52 185.665 27.176V20.36H184.001C183.489 20.36 183.094 20.232 182.817 19.976C182.54 19.6987 182.401 19.3253 182.401 18.856C182.401 18.3653 182.54 17.992 182.817 17.736C183.094 17.48 183.489 17.352 184.001 17.352H185.665V14.44C185.665 13.7787 185.836 13.2773 186.177 12.936C186.54 12.5947 187.041 12.424 187.681 12.424C188.321 12.424 188.812 12.5947 189.153 12.936C189.494 13.2773 189.665 13.7787 189.665 14.44V17.352H193.057C193.569 17.352 193.964 17.48 194.241 17.736C194.518 17.992 194.657 18.3653 194.657 18.856C194.657 19.3253 194.518 19.6987 194.241 19.976C193.964 20.232 193.569 20.36 193.057 20.36H189.665V26.952C189.665 27.976 189.889 28.744 190.337 29.256C190.785 29.768 191.51 30.024 192.513 30.024C192.876 30.024 193.196 29.992 193.473 29.928C193.75 29.864 193.996 29.8213 194.209 29.8C194.465 29.7787 194.678 29.864 194.849 30.056C195.02 30.2267 195.105 30.5893 195.105 31.144C195.105 31.5707 195.03 31.9547 194.881 32.296C194.753 32.616 194.508 32.84 194.145 32.968C193.868 33.0533 193.505 33.128 193.057 33.192C192.609 33.2773 192.214 33.32 191.873 33.32Z" fill="white"/>
</svg>
